<svg xmlns="http://www.w3.org/2000/svg" width="512" height="512" preserveAspectRatio="none" style="display:block" viewBox="0 0 2048 2048"><defs><linearGradient id="f" x1="664.524" x2="644.826" y1="699.274" y2="679.986" gradientUnits="userSpaceOnUse"><stop class="stop0" offset="0" stop-color="#ddfbf1"/><stop class="stop1" offset="1" stop-color="#a8e8f9"/></linearGradient><linearGradient id="e" x1="415.544" x2="502.85" y1="994.794" y2="1170.01" gradientUnits="userSpaceOnUse"><stop class="stop0" offset="0" stop-color="#f9fbc6"/><stop class="stop1" offset="1" stop-color="#f1fcf5"/></linearGradient><linearGradient id="d" x1="812.269" x2="943.977" y1="1550.62" y2="1560.98" gradientUnits="userSpaceOnUse"><stop class="stop0" offset="0" stop-color="#010000"/><stop class="stop1" offset="1" stop-color="#000718"/></linearGradient><linearGradient id="c" x1="899.429" x2="1188.07" y1="1456.18" y2="1295.58" gradientUnits="userSpaceOnUse"><stop class="stop0" offset="0"/><stop class="stop1" offset="1" stop-color="#050b25"/></linearGradient><linearGradient id="b" x1="1121.01" x2="1240.61" y1="1812.8" y2="1840.33" gradientUnits="userSpaceOnUse"><stop class="stop0" offset="0" stop-color="#111834"/><stop class="stop1" offset="1" stop-color="#000005"/></linearGradient><linearGradient id="a" x1="1326.47" x2="1151.25" y1="1136.62" y2="1222.34" gradientUnits="userSpaceOnUse"><stop class="stop0" offset="0"/><stop class="stop1" offset="1" stop-color="#0b1735"/></linearGradient></defs><path fill="#f6f8f7" d="M1155.05 925.091c1.19 3.955 1.47 4.654 1.7 8.707-.87 8.487.76 15.982 2.7 24.208 6.22 3.141 11.32 3.67 17.95 5.467 17.69 4.798 36.21 11.095 52.26 20.027 6.36 3.535 11.92 8.416 18.03 11.789 5.28 1.954 7.82 4.555 11.99 8.141 45.1 38.81 50.69 97.52 66.23 150.87l-.22 1.09c1.67 5.78 3.47 11.13 4.17 17.11l3 4.6c-.73 2.94 7.08 41.18 8.41 46.37 16.56 10.6 33.57 21.53 49 33.77-3.67 4.06-1.99 3.3-6.74 4.58l9.12 7.1c3.21-.74 6.51-2.29 10.12-3.15l10.13 9.59c9.93.58 17.36.4 27.14-1.62l1.28-.26c.26-.06.51-.11.77-.17 8.87-9.37 15.65-22.27 30.1-20.9 41.91 3.98 1.19 48.05-4.8 58.94l3.38 2.6c4.78 4.58 10.64 7.5 16.42 10.79.94-9.34 1.45-11.45 4.53-19.98 9.51-5.07 17.26-8.97 27.11-13.47 5.49-.35 11.92-1.53 16.19 2.6 11.01 10.65 1.09 36.22-3.03 48.39-15.92 35.57-44.05 53.09-78.57 68.64-25.75 11.61-49.18 2.03-73.3-7.02-11.91-3.95-40.57-.94-54.6-9.01-1.44-.55-3.95-2.05-5.36-2.91-9.51 1.79-29.66-10.14-38.61-13.89-40.66-17.03-54.05-47.25-74.43-82.94-.18 8.72-.3 15.25.39 23.9 1.3 20.21 1.26 40.37 2.29 60.56 5.36 104.27 18.96 208.94 24.64 313 3.06 31.4 4.96 56.97 6.05 88.71 2.17 12.61 5.9 55.61-.45 66.65-4.82 8.36-44.48 19.05-54.59 19.75-21.01 1.45-46.88 1.66-68.53 2.07-13.13.68-48.91-4.58-59.75-12.88-2.7-4.28-1.28-16.23-.88-21.5 1.36-14.13-4.64-27-5.38-41.29-.82-15.65-5.16-34.64-4.93-50.1 1.52-7.49-1.37-13.59-2.57-21.11-4.89-30.8-8.9-61.87-13.77-92.68-2.09-13.21-5.06-27.01-5.98-40.07l.52-.3 2.22.61.92-1.47c.62-5.09-4.32-46.51-6.56-50.84l-2.86-.27c-.39-3.95-.34-8.15-2.37-11.43l-1.88-.57c-6.53 4.93-7.94 18.72-8.51 26.33-1.07 1.4-1.55 1.8-2.82 2.93-3.269 7.97-8.171 39.2-9.439 48.79l.86.2.958-3.04.459 2.99c1.174-2.02.848-1.87 1.303-4.33l.831 6.37c-5.741 27.35-11.792 55.29-15.823 82.92-4.029 27.61-5.213 55.66-7.999 83.4-1.129 11.24-3.4 22.34-4.758 33.55-1.257 10.38-.949 21.9-3.58 31.98-.593 2.27-1.498 4.71-3.464 6.08-10.942 7.62-91.986 14.06-109.372 14.85-17.521.81-35.389 1.01-52.904.12-11.914-.61-23.387-3.65-35.105-5.64 1.858-43.32 5.232-45.57 30.331-79.51.174-8.28.267-14.92 1.281-23.1-.069-20.25 4.495-36.05 5.87-55.44 4.051-57.08 13.371-113.13 20.762-169.8.618-4.74 1.65-10.99 1.853-15.64 1.964-44.84 12.427-88.69 17.492-133.22 1.731-15.27 4.933-32.86 4.337-48.19-.031-10.52 1.275-21.93 1.307-33.01-5.664 9.46-11.034 24.3-17.358 32.45l-1.925-1.01c-1.037-3.07-.889-2.9-3.183-5.18-14.902 18.96-21.7 30.41-44.173 41.3l.954 3.75c2.971 1.49 4.71 1.2 7.287 3.02-12.552 7.89-54.75 21.64-69.026 20.98-22.437 5.33-74.178 7.73-97.35 4.49-4.37-.75-13.471-9.33-17.56-8.82-50.719 6.33-112.435-12.67-143.792-54.84-10.411-14.01-28.468-52.86-8.438-66.67 4.197-1.4 8.08-.96 12.555-.9 4.572 2.89 11.01 6.36 14.247 10.39 18.514 10.6 42.979 5.6 47.632 34.26 8.183-8.03 19.63-15.42 24.477-20.28l-.948-2.41c-9.287-2.57-20.401-12.73-27-19.48-5.922-6.74-7.478-9.86-10.479-17.97 1.99-6.48 2.583-7.64 5.862-13.47 8.527-11.79 27.178-2.63 36.034 4.14 5.666 3.63 12.705 8.84 18.479 11.54 6.831 2.32 35.29 14.08 36.957 13.16 20.951-11.48 72.153-26.96 94.269-32.59 8.112-13.59 19.332-38.5 26.003-52.76l34.38-72.73c31.489-66.4 41.125-89.96 109.411-123.628 4.136-3.234 14.483-6.07 19.549-7.425 13.676-5.79 14.909.386 28.552-11.623q.47-1.18.9-2.378c1.804-5.087 1.485-6.11-.706-10.685 1.595-2.539 2.498-4.748 3.712-7.462a185.5 185.5 0 0 0 78.028 23.63c52.33 4.015 109.5-6.03 150.18-41.188"/><path fill="#f6f8f7" d="M1155.05 925.091c1.19 3.955 1.47 4.654 1.7 8.707-.87 8.487.76 15.982 2.7 24.208 6.22 3.141 11.32 3.67 17.95 5.467 17.69 4.798 36.21 11.095 52.26 20.027 6.36 3.535 11.92 8.416 18.03 11.789 5.28 1.954 7.82 4.555 11.99 8.141 45.1 38.81 50.69 97.52 66.23 150.87l-.22 1.09c1.67 5.78 3.47 11.13 4.17 17.11l3 4.6c-.73 2.94 7.08 41.18 8.41 46.37 16.56 10.6 33.57 21.53 49 33.77-3.67 4.06-1.99 3.3-6.74 4.58l9.12 7.1c3.21-.74 6.51-2.29 10.12-3.15l10.13 9.59c9.93.58 17.36.4 27.14-1.62l1.28-.26c.26-.06.51-.11.77-.17 8.87-9.37 15.65-22.27 30.1-20.9 41.91 3.98 1.19 48.05-4.8 58.94l3.38 2.6c4.78 4.58 10.64 7.5 16.42 10.79.94-9.34 1.45-11.45 4.53-19.98 9.51-5.07 17.26-8.97 27.11-13.47 5.49-.35 11.92-1.53 16.19 2.6 11.01 10.65 1.09 36.22-3.03 48.39-15.92 35.57-44.05 53.09-78.57 68.64-25.75 11.61-49.18 2.03-73.3-7.02-11.91-3.95-40.57-.94-54.6-9.01-1.44-.55-3.95-2.05-5.36-2.91-9.51 1.79-29.66-10.14-38.61-13.89-40.66-17.03-54.05-47.25-74.43-82.94-.18 8.72-.3 15.25.39 23.9-1.17 4.25-.04 2.6-3.32 5.25-2.72.11-2.82.29-5.43-.19-20.82 1.23-41.65 2.18-62.5 2.85-57.09 1.84-114.22 2.32-171.33 1.45-37.088-.49-71.695-.96-108.697-3.64-.578-36.91.718-73.22 1.505-110.12 1.547-72.52 1.059-153.48 35.06-219.765-1.384-3.921-1.353-4.27-4.319-6.985l-.338-2.198-13.738 5.458c2.57-4.323 3.484-4.839.432-8.938 4.136-3.234 14.483-6.07 19.549-7.425 13.676-5.79 14.909.386 28.552-11.623q.47-1.18.9-2.378c1.804-5.087 1.485-6.11-.706-10.685 1.595-2.539 2.498-4.748 3.712-7.462a185.5 185.5 0 0 0 78.028 23.63c52.33 4.015 109.5-6.03 150.18-41.188"/><path fill="#f6f8f7" d="M1159.45 958.006c6.22 3.141 11.32 3.67 17.95 5.467 17.69 4.798 36.21 11.095 52.26 20.027 6.36 3.535 11.92 8.416 18.03 11.789 5.28 1.954 7.82 4.555 11.99 8.141 45.1 38.81 50.69 97.52 66.23 150.87l-.22 1.09c1.67 5.78 3.47 11.13 4.17 17.11l3 4.6c-.73 2.94 7.08 41.18 8.41 46.37 16.56 10.6 33.57 21.53 49 33.77-3.67 4.06-1.99 3.3-6.74 4.58l9.12 7.1c3.21-.74 6.51-2.29 10.12-3.15l10.13 9.59c9.93.58 17.36.4 27.14-1.62l1.28-.26c.26-.06.51-.11.77-.17 8.87-9.37 15.65-22.27 30.1-20.9 41.91 3.98 1.19 48.05-4.8 58.94l3.38 2.6c4.78 4.58 10.64 7.5 16.42 10.79.94-9.34 1.45-11.45 4.53-19.98 9.51-5.07 17.26-8.97 27.11-13.47 5.49-.35 11.92-1.53 16.19 2.6 11.01 10.65 1.09 36.22-3.03 48.39-15.92 35.57-44.05 53.09-78.57 68.64-25.75 11.61-49.18 2.03-73.3-7.02-11.91-3.95-40.57-.94-54.6-9.01-1.44-.55-3.95-2.05-5.36-2.91-9.51 1.79-29.66-10.14-38.61-13.89-40.66-17.03-54.05-47.25-74.43-82.94-.18 8.72-.3 15.25.39 23.9-1.17 4.25-.04 2.6-3.32 5.25-2.72.11-2.82.29-5.43-.19-20.82 1.23-41.65 2.18-62.5 2.85 5.83-9.77 4.88-140.25 16.24-158.72 1.43-2.32 3.78-15.29 3.64-18.75-8.87-63.1-5.15-120.99 33.75-174.315-8.37-2.222-15.37-4.2-23.57-6.958-4.68-4.581-6.05-2.79-6.87-10.211"/><path fill="#061a3f" d="M1442.09 1273.31c8.87-9.37 15.65-22.27 30.1-20.9 41.91 3.98 1.19 48.05-4.8 58.94l3.38 2.6c4.78 4.58 10.64 7.5 16.42 10.79.94-9.34 1.45-11.45 4.53-19.98 9.51-5.07 17.26-8.97 27.11-13.47 5.49-.35 11.92-1.53 16.19 2.6 11.01 10.65 1.09 36.22-3.03 48.39-15.92 35.57-44.05 53.09-78.57 68.64-25.75 11.61-49.18 2.03-73.3-7.02-11.91-3.95-40.57-.94-54.6-9.01-1.44-.55-3.95-2.05-5.36-2.91 3.17.44 4.53.84 7.69.15-2.5-1.3-3.95-2.03-6.33-3.61l1.98-1.05c3.39.48 4 .48 6.89 2.6l.45-2.85c8.58 2.05 13.25 3.31 21.64 6.29-14.42-24.43-16.21-23.8-12.75-52.34a73.8 73.8 0 0 1 11.64-30.65c13.34-20.18 29.06-28.7 52.01-33.56-3.77-2.54-7.15-5.24-10.73-8.04 3.21-.74 6.51-2.29 10.12-3.15l10.13 9.59c9.93.58 17.36.4 27.14-1.62l1.28-.26c.26-.06.51-.11.77-.17"/><path fill="#35446f" d="M1522.26 1345.41c-5.45 6.33-17.21 29.11-27.18 26.55-.05-.25-.47-2.04-.44-2.24 5.71-34.53-11.26-70.07 34.93-71.1 9.87 4.37-4.4 39.07-7.31 46.79"/><path fill="#b9c3db" d="M1439.26 1313.66c3.98-.14 8.38-.82 11.74 1 1.2 3.23.95 1.56.41 5.23-.86 4.81-2.08 9.76-3.17 14.54-7.52-1.36-27.07-6.01-25.38-16.26 4.37-4.61 9.91-4.02 16.4-4.51"/><path fill="#090f1d" d="M1518.83 1291.29c5.49-.35 11.92-1.53 16.19 2.6 11.01 10.65 1.09 36.22-3.03 48.39-1.59-2.56-1.44-2.49-3.8-4.31 1.25-2.61 3.07-3.66 5.36-5.47 2.22-7.03 6.58-26.15 3.34-32.76l-.98-.62c-2.46 5.48-1.24 14.03-2.11 18.86-1.06 5.84-7.91 22.95-10.62 27.66l-.92-.23c2.91-7.72 17.18-42.42 7.31-46.79-8.94-1.72-8.19 1.78-10.74-7.33"/><path fill="#3f4351" d="M1439.26 1313.66c2.47-1.82 16.18.25 20.34-2.56 3.08-2.09 4.83-1.41 7.79.25l3.38 2.6c-6.46 6.8-10.62 3.89-19.36 5.94.54-3.67.79-2-.41-5.23-3.36-1.82-7.76-1.14-11.74-1"/><path fill="#35446f" d="M1352.28 1327.52c19.51 3.42 36.99 11.44 52.99 23.07 6.17 4.48 4.38 14.6 7 22.37l1.25.57c4.18-6.15 5.3-21.32 10.58-30.81 29.16-9.43 29.18 8.58 23.25 30.18a92 92 0 0 1-19.18 33.9c-24.78.53-56.44-16.23-74.99-32.09-7.49-6.4-1.94-36.97-.9-47.19"/><path fill="#35446f" d="M1352.12 1320.33c35.33-35.77 40.17-37.77 91.13-38.55 4.57-.07 21.62-26.67 33.35-20.97 2.81 4.65 2.26 11.71.76 16.38-10.38 32.3-32.89 23.29-56.15 32.77-7.36 2.99-8.75 14.78-19.77 21.18 3.05 1.24 2.28 1.49 5.06 1.15l-2 3.84c1.1 2.42.28 1.42 2.45 2.99-8.48.08-10.53-2.03-17.51-6.68-13.57-5.22-22.77-10.22-37.32-12.11"/><path fill="#253560" d="M1389.44 1332.44c4.53-.16 7.54-.63 12-1.3 3.05 1.24 2.28 1.49 5.06 1.15l-2 3.84c1.1 2.42.28 1.42 2.45 2.99-8.48.08-10.53-2.03-17.51-6.68"/><path fill="#35446f" d="M1459.35 1324.88c14.68.84 18.32 1.16 27.34 13.58 2 24.09-3.12 47.93-26.37 59.96-9.09 3.77-10.24 4.71-20.03 7.03 4.45-11.64 13.69-21.03 16.76-33.56 3.32-13.51-1.54-34.17 2.3-47.01m-52.85 7.41c3.84-.25 5.29-.77 8.45 1.36 2.07 3.56 1.58 1.71 1.65 5.74-1.78 2.46-1.62 2.31-4.5 3.32-2.98-.99-2.75-1.3-5.15-3.59-2.17-1.57-1.35-.57-2.45-2.99z"/><path fill="#f6f8f7" d="m1329.86 1172.5 3 4.6c-.73 2.94 7.08 41.18 8.41 46.37 16.56 10.6 33.57 21.53 49 33.77-3.67 4.06-1.99 3.3-6.74 4.58l9.12 7.1c3.58 2.8 6.96 5.5 10.73 8.04-22.95 4.86-38.67 13.38-52.01 33.56a73.8 73.8 0 0 0-11.64 30.65c-3.46 28.54-1.67 27.91 12.75 52.34-8.39-2.98-13.06-4.24-21.64-6.29-36.41-10.71-68.41-24.2-91.51-55.1.08-.25.15-.5.22-.75 3.51-5.14 2.57-19.05 2.19-25.74-.94-2.83-.83-2.64-3.15-4.53 1.76-11.01 3.94-17.49 7.65-28.06 6.05-11.36 12.6-20.17 22.47-28.45 19.36-17.54 40.16-24.54 66.2-20.77-3.02-9.94-7.48-27.25-9.01-37.2-.04-.85-.98-4.99-1.2-6.09 1.37-2.78 3.38-5.46 5.16-8.03"/><path fill="#b9c3db" d="M1248.22 1280.24c3.32 6.52 4.59-1.26 4.4 9.73 3.49 4.44 8.69 8.36 12.77 12.3 20.07 19.35 44.69 33.09 71.95 39.2.78.17 1.64-.11 2.39-.3-3.46 28.54-1.67 27.91 12.75 52.34-8.39-2.98-13.06-4.24-21.64-6.29-36.41-10.71-68.41-24.2-91.51-55.1.08-.25.15-.5.22-.75 3.51-5.14 2.57-19.05 2.19-25.74 1.38-10.97 1.91-15.42 6.48-25.39"/><path fill="#000002" d="m1329.86 1172.5 3 4.6c-.73 2.94 7.08 41.18 8.41 46.37 16.56 10.6 33.57 21.53 49 33.77-3.67 4.06-1.99 3.3-6.74 4.58-10.75-8.18-21.2-16.02-32.5-23.43-26.61-17.44-54.85-10.56-77.8 8.58-1.12-.45-3.35-1.75-4.52-2.38 19.36-17.54 40.16-24.54 66.2-20.77-3.02-9.94-7.48-27.25-9.01-37.2-.04-.85-.98-4.99-1.2-6.09 1.37-2.78 3.38-5.46 5.16-8.03"/><path fill="#090f1d" d="M1246.24 1273.04c6.05-11.36 12.6-20.17 22.47-28.45 1.17.63 3.4 1.93 4.52 2.38-11.91 12.09-17.73 18.15-25.01 33.27-4.57 9.97-5.1 14.42-6.48 25.39-.94-2.83-.83-2.64-3.15-4.53 1.76-11.01 3.94-17.49 7.65-28.06"/><path fill="#b9c3db" d="M1156.14 1149.49c9.12 41.3 33.38 82.86 41.99 124.76 2.24 10.88.09 36.68.63 49.86-20.82 1.23-41.65 2.18-62.5 2.85 5.83-9.77 4.88-140.25 16.24-158.72 1.43-2.32 3.78-15.29 3.64-18.75"/><path fill="#f6f8f7" d="M1272.73 1175.55c10.2-6.43 33.26-7.91 44.32-3.35 1.52.62 2.32 1.1 4.1 1.55l1.38.34c.67 1.89 1.74 4.56 2.17 6.44.22 1.1 1.16 5.24 1.2 6.09 1.53 9.95 5.99 27.26 9.01 37.2-26.04-3.77-46.84 3.23-66.2 20.77-9.87 8.28-16.42 17.09-22.47 28.45-6.18-3.91-5.94-20.06-9.24-26.76-3.62-7.34-8.64-15.09-12.75-22.28-2.08 4.07-5.91 12.04-6.48 16.59-.37 2.91.3 1.07-.95 4.5l-1.51.13c1.9-3.92 1.41-7.84 2.66-12.26 1.69-5.94 3.63-11.8 5.56-17.67 10.34-18.76 28.92-33.38 49.2-39.74"/><path fill="#7a85a3" d="M1272.73 1175.55c10.2-6.43 33.26-7.91 44.32-3.35 1.52.62 2.32 1.1 4.1 1.55l1.38.34c.67 1.89 1.74 4.56 2.17 6.44.22 1.1 1.16 5.24 1.2 6.09-1.88.17-3.39.92-5.21 1.6-1.47-1.55-5.97-6.35-7.59-7.14-9.46-4.64-28.06-2.19-37.65.03-2.45-.88-2.54-1.01-4.72-2.48l2.29-1.7z"/><path fill="#656f88" d="M1223.53 1215.29c10.34-18.76 28.92-33.38 49.2-39.74l.29 1.38-2.29 1.7c2.18 1.47 2.27 1.6 4.72 2.48-21.61 6.12-42.38 21.84-51.2 42.89-2.08 4.07-5.91 12.04-6.48 16.59-.37 2.91.3 1.07-.95 4.5l-1.51.13c1.9-3.92 1.41-7.84 2.66-12.26 1.69-5.94 3.63-11.8 5.56-17.67"/><path fill="#b9c3db" d="M1186.76 1112.26c4.73 18.02 26.59 92.09 36.77 103.03-1.93 5.87-3.87 11.73-5.56 17.67-1.25 4.42-.76 8.34-2.66 12.26l1.51-.13c1.25-3.43.58-1.59.95-4.5.57-4.55 4.4-12.52 6.48-16.59 4.11 7.19 9.13 14.94 12.75 22.28 3.3 6.7 3.06 22.85 9.24 26.76-3.71 10.57-5.89 17.05-7.65 28.06 2.32 1.89 2.21 1.7 3.15 4.53.38 6.69 1.32 20.6-2.19 25.74-.07.25-.14.5-.22.75l-1.73-2.01c-20.91-28.25-41.74-88.38-51.78-123.22-3.65-12.66-9.09-26.07-8.85-39.08 1.02-4.36 2.69-21.96.5-25.69 2.17-10.54 5.4-19.88 9.29-29.86"/><path fill="#656f88" d="M1238.59 1301.1c2.32 1.89 2.21 1.7 3.15 4.53.38 6.69 1.32 20.6-2.19 25.74-.07.25-.14.5-.22.75l-1.73-2.01c.9-4.37-.42-19.8.99-29.01"/><path fill="url(#a)" d="M1159.45 958.006c6.22 3.141 11.32 3.67 17.95 5.467 17.69 4.798 36.21 11.095 52.26 20.027 6.36 3.535 11.92 8.416 18.03 11.789 3.8 4.195 17.64 16.291 18.46 19.471-8.91-4.87-18.24-15.988-25.94-17.356-14.99-8.702-27.14-14.371-43.16-20.597-6.62 8.958-13.92 18.867-18.85 28.813-21.72 43.74-26.45 118.13-7.74 163.46l1.5 1.23c3.26-2.42 1.87-2.33 5.01-2.5-.24 13.01 5.2 26.42 8.85 39.08 10.04 34.84 30.87 94.97 51.78 123.22l1.73 2.01c23.1 30.9 55.1 44.39 91.51 55.1l-.45 2.85c-2.89-2.12-3.5-2.12-6.89-2.6l-1.98 1.05c2.38 1.58 3.83 2.31 6.33 3.61-3.16.69-4.52.29-7.69-.15-9.51 1.79-29.66-10.14-38.61-13.89-40.66-17.03-54.05-47.25-74.43-82.94-.18 8.72-.3 15.25.39 23.9-1.17 4.25-.04 2.6-3.32 5.25-2.72.11-2.82.29-5.43-.19-.54-13.18 1.61-38.98-.63-49.86-8.61-41.9-32.87-83.46-41.99-124.76-8.87-63.1-5.15-120.99 33.75-174.315-8.37-2.222-15.37-4.2-23.57-6.958-4.68-4.581-6.05-2.79-6.87-10.211"/><path fill="#000002" d="M1247.69 995.289c5.28 1.954 7.82 4.555 11.99 8.141 45.1 38.81 50.69 97.52 66.23 150.87l-.22 1.09c-2.11-2.04-2.16-2.55-4.9-3.18l-3.25 2.41c-9.11-42.18-20.81-99.37-49.37-132.6-7.43-8.65-18.91-17.37-27.96-24.616 7.7 1.368 17.03 12.486 25.94 17.356-.82-3.18-14.66-15.276-18.46-19.471"/><path fill="#061a3f" d="m1317.54 1154.62 3.25-2.41c2.74.63 2.79 1.14 4.9 3.18 1.67 5.78 3.47 11.13 4.17 17.11-1.78 2.57-3.79 5.25-5.16 8.03-.43-1.88-1.5-4.55-2.17-6.44-1.73-6.48-3.39-12.97-4.99-19.47"/><path fill="#656f88" d="M1177.47 1142.12c2.19 3.73.52 21.33-.5 25.69-3.14.17-1.75.08-5.01 2.5l-1.5-1.23 1.32-.41c2.29-2.44 4.74-21.49 5.69-26.55"/><path fill="#253560" d="M1155.05 925.091c1.19 3.955 1.47 4.654 1.7 8.707-.87 8.487.76 15.982 2.7 24.208.82 7.421 2.19 5.63 6.87 10.211-3.15-1.301-6.45-3.152-9.65-2.592-8.51 5.208-21.26 13.511-30.1 17.667-46.51 21.888-104.9 25.948-154.639 14.413-15.418-3.575-32.944-11.194-45.398-21.087-1.598-1.269-1.555-1.263-3.539-2.153-2.617-7.203-2.685-5.048-.058-11.291q.47-1.18.9-2.378c1.804-5.087 1.485-6.11-.706-10.685 1.595-2.539 2.498-4.748 3.712-7.462a185.5 185.5 0 0 0 78.028 23.63c52.33 4.015 109.5-6.03 150.18-41.188"/><path fill="#061a3f" d="M922.936 963.174c-2.627 6.243-2.559 4.088.058 11.291-16.881 6.54-20.8 5.413-30.196 20.42-1.384-3.921-1.353-4.27-4.319-6.985l-.338-2.198-13.738 5.458c2.57-4.323 3.484-4.839.432-8.938 4.136-3.234 14.483-6.07 19.549-7.425 13.676-5.79 14.909.386 28.552-11.623"/><path fill="#090f1d" d="M874.835 982.222c4.136-3.234 14.483-6.07 19.549-7.425-3.19 3.111-4.119 3.296-8.408 4.602l-.207 2.11 2.831 3.122-.459 1.071-13.738 5.458c2.57-4.323 3.484-4.839.432-8.938"/><path fill="#19727f" d="M987.796 1092.17c14.384-.74 89.734-1.51 98.974 1.99 4.22 1.61 7.02 6.27 8.54 10.3 1.66 4.43 2.36 9.52.21 13.9-2.57 5.25-7.62 8.53-13.04 10.21-17.31-.31-85.357 2.79-97.391-1.22-6.285-2.1-9.181-9.31-11.796-14.87.612-2.04 1.253-4.06 1.923-6.08 2.63-7.72 5.424-10.76 12.58-14.23"/><path fill="#6ceaec" d="M1024.03 1098.5c13.24-.21 58.58-3.17 63.53 4.35 17.35 26.33-34.36 20.45-39.07 20.32-10.52-.17-56.903 1.35-62.679-1.94-4.344-5.59-6.689-17.52 1.167-20.39 9.996-3.67 26.202-2.31 37.052-2.34"/><path fill="#3c8bd3" d="M928.214 1071.86c6.149.15 13.956 3.8 14.031 10.79.213 19.99 1.125 42.57-4.565 61.85-1.384 4.68-4.711 5.97-8.677 7.6-3.639.03-3.891-.05-7.278-.75-10.735-7.13-5.14-58.88-2.919-71.53.631-3.59 6.575-6.45 9.408-7.96"/><path fill="#b9c3db" d="M705.041 1231.34c8.112-13.59 19.332-38.5 26.003-52.76l34.38-72.73c31.489-66.4 41.125-89.96 109.411-123.628 3.052 4.099 2.138 4.615-.432 8.938l13.738-5.458.338 2.198c-18.462 38.38-27.54 73.07-32.616 115.26-.837 6.96-2.935 36.99-4.312 40.74l-1.13-.38c-3.41-11.07-5.734-24.91-10.926-34.68-1.084 18.29 6.962 37.74 10.737 55.35 2.41 11.24-1.064 27.88-.324 39.62-.312 57.28 2.695 67.72-24.854 117.93-14.902 18.96-21.7 30.41-44.173 41.3l.954 3.75c2.971 1.49 4.71 1.2 7.287 3.02-12.552 7.89-54.75 21.64-69.026 20.98-22.437 5.33-74.178 7.73-97.35 4.49-4.37-.75-13.471-9.33-17.56-8.82-50.719 6.33-112.435-12.67-143.792-54.84-10.411-14.01-28.468-52.86-8.438-66.67 4.197-1.4 8.08-.96 12.555-.9 4.572 2.89 11.01 6.36 14.247 10.39 18.514 10.6 42.979 5.6 47.632 34.26 8.183-8.03 19.63-15.42 24.477-20.28l-.948-2.41c-9.287-2.57-20.401-12.73-27-19.48-5.922-6.74-7.478-9.86-10.479-17.97 1.99-6.48 2.583-7.64 5.862-13.47 8.527-11.79 27.178-2.63 36.034 4.14 5.666 3.63 12.705 8.84 18.479 11.54 6.831 2.32 35.29 14.08 36.957 13.16 20.951-11.48 72.153-26.96 94.269-32.59"/><path fill="#061a3f" d="M519.302 1235.09c8.527-11.79 27.178-2.63 36.034 4.14 5.666 3.63 12.705 8.84 18.479 11.54l-1.429.76-4.975-1.01 1.539.69-.165 1.41c5.095 6.23 6.741 3.61 11.415 8.78 12.556 6 23.943 6.03 36.742 12.83 2.98.6 10.238-1.18 12.839-2.56 25.119 11.69 40.445 50.42 32.669 76.25-6.763 20.36-11.63 30.09-31.718 40.12-1.545.78-3.096 1.54-4.653 2.29 16.318-.96 32.624-2.11 48.916-3.44 9.097-.81 24.189-2.93 32.379-3.01-5.341 4.89-11.069.69-16.53 4.88l-.285 1.87c11.145 6.69 16.743-7.54 29.537.16-22.437 5.33-74.178 7.73-97.35 4.49-4.37-.75-13.471-9.33-17.56-8.82-50.719 6.33-112.435-12.67-143.792-54.84-10.411-14.01-28.468-52.86-8.438-66.67 4.197-1.4 8.08-.96 12.555-.9 4.572 2.89 11.01 6.36 14.247 10.39 18.514 10.6 42.979 5.6 47.632 34.26 8.183-8.03 19.63-15.42 24.477-20.28l-.948-2.41c-9.287-2.57-20.401-12.73-27-19.48-5.922-6.74-7.478-9.86-10.479-17.97 1.99-6.48 2.583-7.64 5.862-13.47"/><path fill="#35446f" d="M519.302 1235.09c8.527-11.79 27.178-2.63 36.034 4.14 5.666 3.63 12.705 8.84 18.479 11.54l-1.429.76-4.975-1.01 1.539.69-.165 1.41c5.095 6.23 6.741 3.61 11.415 8.78 12.556 6 23.943 6.03 36.742 12.83 12.693 9.03 23.547 22.39 25.537 38.21 1.443 11.48 1.62 38.46-6.116 46.97-17.376 19.11-67.725 27.32-88.046 10.11-17.284-14.63-20.999-28.98-20.104-50.43 21.563-18.51 29.611-6.48 34.916 17.33 3.061 2.94 3.99 4.27 7.816 5.81l2.422-.37c3.188-4.66 1.605-13.69 1.172-19.59 6.833.04 26.056 1.04 31.015-2.2 1.356-4.26.429-3.11-.711-8.21-11.462-3.13-18.9-6.4-28.899-13.24-6.502-4.44-14.452-15.19-21.837-16.93-2.712 1.72-1.489.8-3.188 4.32-9.287-2.57-20.401-12.73-27-19.48-5.922-6.74-7.478-9.86-10.479-17.97 1.99-6.48 2.583-7.64 5.862-13.47"/><path fill="#353f62" d="m519.302 1235.09 6.275 1.09.859 1.75-1.067 2.3c-4.371 10.69-1.439 15.09 2.267 26.03-2.427.38-1.189.29-3.717.27-5.922-6.74-7.478-9.86-10.479-17.97 1.99-6.48 2.583-7.64 5.862-13.47"/><path fill="#090f1d" d="M519.302 1235.09c8.527-11.79 27.178-2.63 36.034 4.14-2.279 1.38-3.86 2.47-6.396 3.39-8.001-4.59-15.71-9-23.571-2.39l1.067-2.3-.859-1.75z"/><path fill="#061a3f" d="M555.336 1239.23c5.666 3.63 12.705 8.84 18.479 11.54l-1.429.76-4.975-1.01 1.539.69-.165 1.41c5.095 6.23 6.741 3.61 11.415 8.78-9.239-3.08-24.364-12.16-31.26-18.78 2.536-.92 4.117-2.01 6.396-3.39"/><path fill="#35446f" d="M503.368 1295.8c13.553 1.08 15.194 5.73 18.464 17.57-.094 31.81-.716 32.62 17.182 59.03-30.044-11.18-47.658-21.55-45.255-59.08.473-7.4 3.727-12.98 9.609-17.52"/><path fill="#353f62" d="M495.643 1282.16c3.397 1.2 8.197 2.12 9.756 4.56l-.486.63c-6.436.52-9.618 3.53-12.651 9.26-9.047 17.08-3.394 37.79 1.305 55.28-14.493-12.37-30.112-26.18-23.887-47.78 1.962-6.81 3.821-5.93 4.722-14.74 1.85-2.11 18.078-6.49 21.241-7.21"/><path fill="#35446f" d="M452.628 1279.18c7.526-9.78 15.471-11.03 17.49 3.66.605 4.4-5.744 18.46-6.25 26.47-.863 1.68-.528 2.68-.546 4.6l-1.225 1.09c-7.678-6.13-9.424-26.6-9.469-35.82"/><path fill="#253560" d="M479.758 1274.44c18.514 10.6 42.979 5.6 47.632 34.26l-5.558 4.67c-3.27-11.84-4.911-16.49-18.464-17.57.973-3.67 1.22-4.7 1.545-8.45l.486-.63c-1.559-2.44-6.359-3.36-9.756-4.56-3.303-3.3-12.822-3.7-17.937-4.38z"/><path fill="#253560" d="M452.956 1264.95c4.197-1.4 8.08-.96 12.555-.9 4.572 2.89 11.01 6.36 14.247 10.39l-2.052 3.34-3.261-.69c-4.723 3.37-6.221 25.91-10.577 32.22.506-8.01 6.855-22.07 6.25-26.47-2.019-14.69-9.964-13.44-17.49-3.66-.341-4.58 4.721-8.76 7.755-12.17l1.996-.4.303-.71-.035-.03c-3.839-.32-4.168 1.6-8.713 1.45z"/><path fill="#35446f" d="M560.834 1296.69c9.119 3.32 17.041 14.21 28.785 13.3 2.089-.16 1.938.5 3.404 1.99-1.756.37-2.473.3-4.272.37-9.326-.65-14.003-1.88-21.832 3.74-1.22.88-.717.72-2.22.41-.861-7.81-1.923-12.12-3.865-19.81"/><path fill="#f6f8f7" d="M705.041 1231.34c8.112-13.59 19.332-38.5 26.003-52.76l34.38-72.73c31.489-66.4 41.125-89.96 109.411-123.628 3.052 4.099 2.138 4.615-.432 8.938l13.738-5.458.338 2.198c-18.462 38.38-27.54 73.07-32.616 115.26-.837 6.96-2.935 36.99-4.312 40.74l-1.13-.38c-3.41-11.07-5.734-24.91-10.926-34.68l-.482-2.11-1.473-.09c-15.448 17.04-25.3 92.36-29.807 96.55-20.303-16.52-43.917-21.76-69.507-19.25l-1.215 3.47c-6.185 12.34-15.962 33.75-23.321 44.23 22.435 2.61 41.812 16.06 54.093 34.85l-4.06 1.8c-26.338-32.69-45.976-35.24-83.914-21.42-18.748 6.82-38.62 12.19-57.602 19.83l-.113 1.16c2.539 1.32 5.102 2.58 7.687 3.81-2.601 1.38-9.859 3.16-12.839 2.56-12.799-6.8-24.186-6.83-36.742-12.83-4.674-5.17-6.32-2.55-11.415-8.78l.165-1.41-1.539-.69 4.975 1.01 1.429-.76c6.831 2.32 35.29 14.08 36.957 13.16 20.951-11.48 72.153-26.96 94.269-32.59"/><path fill="#000002" d="M705.041 1231.34c8.112-13.59 19.332-38.5 26.003-52.76l34.38-72.73c31.489-66.4 41.125-89.96 109.411-123.628 3.052 4.099 2.138 4.615-.432 8.938-19.233 9.56-41.809 22.7-55.328 39.51-35.121 43.69-56.86 103.17-80.849 153.27l-1.215 3.47c-6.185 12.34-15.962 33.75-23.321 44.23 22.435 2.61 41.812 16.06 54.093 34.85l-4.06 1.8c-26.338-32.69-45.976-35.24-83.914-21.42-18.748 6.82-38.62 12.19-57.602 19.83l-.113 1.16c2.539 1.32 5.102 2.58 7.687 3.81-2.601 1.38-9.859 3.16-12.839 2.56-12.799-6.8-24.186-6.83-36.742-12.83-4.674-5.17-6.32-2.55-11.415-8.78l.165-1.41-1.539-.69 4.975 1.01 1.429-.76c6.831 2.32 35.29 14.08 36.957 13.16 20.951-11.48 72.153-26.96 94.269-32.59"/><path fill="#f6f8f7" d="M629.781 1271.67a243 243 0 0 1-7.687-3.81l.113-1.16c18.982-7.64 38.854-13.01 57.602-19.83 37.938-13.82 57.576-11.27 83.914 21.42 8.138 12.66 12.979 23.66 12.581 39.21-2.218 22.26-71.129 33.71-91.342 37.32-5.907 1.06-16.543 2.81-22.512 3.1 7.776-25.83-7.55-64.56-32.669-76.25"/><path fill="#f6f8f7" d="M737.011 1187.41c19.527.07 56.814 2.58 69.21 20.72-2.013 9.34-.99 21.87-1.809 31.64-1.404 16.77-6.895 57.37-18.105 70.1-1.16.26-1.765.53-2.892.46l-.724-4.23c-1.18-2.39-2.403-4.75-3.67-7.09-1.656 3.29-1.113 5.62-1.991 8.88l-.726-.39c.398-15.55-4.443-26.55-12.581-39.21l4.06-1.8c-12.281-18.79-31.658-32.24-54.093-34.85 7.359-10.48 17.136-31.89 23.321-44.23"/><path fill="#3f4351" d="M767.783 1266.49c10.068 15.47 11.424 21.71 14.908 39.61-1.18-2.39-2.403-4.75-3.67-7.09-1.656 3.29-1.113 5.62-1.991 8.88l-.726-.39c.398-15.55-4.443-26.55-12.581-39.21z"/><path fill="#090f1d" d="M707.374 1383.88c8.151-2.19 20.993-3.19 29.756-4.9 16.086-3.14 29.102-8.95 43.751-15.94l.954 3.75c2.971 1.49 4.71 1.2 7.287 3.02-12.552 7.89-54.75 21.64-69.026 20.98-12.794-7.7-18.392 6.53-29.537-.16l.285-1.87c5.461-4.19 11.189.01 16.53-4.88"/><path fill="#3f4351" d="m737.011 1187.41 1.215-3.47c25.59-2.51 49.204 2.73 69.507 19.25 9.63 10.1 25.438 29.37 23.779 44.08l-1.187.87c-5.276-15.87-6.378-21.96-18.703-35.28-1.662-1.79-4.374-3.62-5.401-4.73-12.396-18.14-49.683-20.65-69.21-20.72"/><path fill="#7a85a3" d="M777.03 1307.89c.878-3.26.335-5.59 1.991-8.88 1.267 2.34 2.49 4.7 3.67 7.09l.724 4.23c-2.004 7.46-1.186 25.13-2.256 34.95-1.424-8.99-3.394-28.04-4.129-37.39"/><path fill="#000002" d="M960.047 1468.89c-3.666-1.52-6.066-2.52-9.855-3.63l-1.65-1.74c3.189-2.81 13.405 1.48 17.637 2.86a9404 9404 0 0 0 51.721 16.68c5.4 33.34 9.21 69.23 13.8 102.9 10.75 78.47 20.9 157.03 30.43 235.66 15.34-44.62 58.85-63.76 102.85-48.16a91.3 91.3 0 0 1 15.78 7.45c19.69 16.22 35.22 38.68 38.95 64.28.32 2.79.22 2.71 1.43 5.2l2.17.63c5.61-1.12 10.1-5.56 14.24-9.51-.46-20.79-1.02-36.52-2.93-57.33 1.86.21 1.85.12 3.74-.04l2.13-2.82c2.17 12.61 5.9 55.61-.45 66.65-4.82 8.36-44.48 19.05-54.59 19.75-21.01 1.45-46.88 1.66-68.53 2.07-13.13.68-48.91-4.58-59.75-12.88-2.7-4.28-1.28-16.23-.88-21.5 1.36-14.13-4.64-27-5.38-41.29-.82-15.65-5.16-34.64-4.93-50.1 1.52-7.49-1.37-13.59-2.57-21.11-4.89-30.8-8.9-61.87-13.77-92.68-2.09-13.21-5.06-27.01-5.98-40.07l.52-.3 2.22.61.92-1.47c.62-5.09-4.32-46.51-6.56-50.84l-2.86-.27c-.39-3.95-.34-8.15-2.37-11.43l-1.88-.57c-6.53 4.93-7.94 18.72-8.51 26.33-1.07 1.4-1.55 1.8-2.82 2.93-3.269 7.97-8.171 39.2-9.439 48.79l.86.2.958-3.04.459 2.99c1.174-2.02.848-1.87 1.303-4.33l.831 6.37c-5.741 27.35-11.792 55.29-15.823 82.92-4.029 27.61-5.213 55.66-7.999 83.4-1.129 11.24-3.4 22.34-4.758 33.55-1.257 10.38-.949 21.9-3.58 31.98-.593 2.27-1.498 4.71-3.464 6.08-10.942 7.62-91.986 14.06-109.372 14.85-17.521.81-35.389 1.01-52.904.12-11.914-.61-23.387-3.65-35.105-5.64 1.858-43.32 5.232-45.57 30.331-79.51.174-8.28.267-14.92 1.281-23.1.599 4.93-.278 18.94 1.175 21.2 2.66-1.33 1.813-1.74 3.801-3.14l1.624 1.45c21.678-8.38 40.579-10.17 62.467-.36a86.5 86.5 0 0 1 30.618 23.46c4.05-4.57 7.377-35.25 8.734-43.66 3.828-22.57 7.783-45.11 11.862-67.63l.764.17.918-3.11c9.535-70.84 28.247-140.29 42.185-210.27"/><path fill="#f6f8f7" d="M1062.22 1850.17c4.96-17.52 5.41-30.37 16.85-46.18a69.2 69.2 0 0 1 45.86-27.98c44.58-6.77 82.05 28.57 88.29 71.02 3.52-.32 3.31-.28 6.49-1.84.32 2.79.22 2.71 1.43 5.2l2.17.63c5.61-1.12 10.1-5.56 14.24-9.51-.46-20.79-1.02-36.52-2.93-57.33 1.86.21 1.85.12 3.74-.04l2.13-2.82c2.17 12.61 5.9 55.61-.45 66.65-4.82 8.36-44.48 19.05-54.59 19.75-21.01 1.45-46.88 1.66-68.53 2.07-13.13.68-48.91-4.58-59.75-12.88 1.34-.56 2.9-1.37 4.23-2.02.55-2.11.64-2.56.82-4.72"/><path fill="url(#b)" d="M1240.49 1781.32c2.17 12.61 5.9 55.61-.45 66.65-4.82 8.36-44.48 19.05-54.59 19.75-21.01 1.45-46.88 1.66-68.53 2.07l-.24-1.03c-2.52-.81-4.47-1.97-6.8-3.2l.89-.99c3.79-.26 5-.03 8.21-2.4 24.53-1.34 70.3 1.39 93.87-8.2 1.77-2.32.89-2.92.37-6.94 3.52-.32 3.31-.28 6.49-1.84.32 2.79.22 2.71 1.43 5.2l2.17.63c5.61-1.12 10.1-5.56 14.24-9.51-.46-20.79-1.02-36.52-2.93-57.33 1.86.21 1.85.12 3.74-.04z"/><path fill="#090f1d" d="M1057.17 1856.91c1.34-.56 2.9-1.37 4.23-2.02.55-2.11.64-2.56.82-4.72 7.01 9.05 44.93 11.29 56.76 12-3.21 2.37-4.42 2.14-8.21 2.4l-.89.99c2.33 1.23 4.28 2.39 6.8 3.2l.24 1.03c-13.13.68-48.91-4.58-59.75-12.88"/><path fill="#b9c3db" d="M960.047 1468.89c16.305 6.92 34.606 14.36 51.703 18.98-4.26 13.17-6.84 26.65-9 40.29-7.036 44.36-16.906 88.32-23.145 132.78-.761 5.41-1.131 13.82-3.004 18.78-9.841-1.29-46.25-.27-58.739-.56 9.535-70.84 28.247-140.29 42.185-210.27"/><path fill="#b9c3db" d="M917.862 1679.16c12.489.29 48.898-.73 58.739.56-.644 2.55-.623 1.61-.007 4.15-3.128 17.05-5.409 42.75-7.5 60.58-3.668 31.28-8.523 65.11-10.729 96.33-14.926 1.46-30.496 4.15-45.375 6.49a96.46 96.46 0 0 0-17.406-53.88c4.05-4.57 7.377-35.25 8.734-43.66 3.828-22.57 7.783-45.11 11.862-67.63l.764.17z"/><path fill="#353f62" d="M917.862 1679.16c12.489.29 48.898-.73 58.739.56-.644 2.55-.623 1.61-.007 4.15-4.936-3.17-47.859-.37-59.65-1.6z"/><path fill="#f6f8f7" d="M825.12 1771.28c48.231-4.5 80.335 30.22 80.976 77.14a1377 1377 0 0 1-53.31 3.85 352.5 352.5 0 0 1-82.846-3.74c2.955-36.75 16.195-68.7 55.18-77.25"/><path fill="url(#c)" d="M888.479 987.9c2.966 2.715 2.935 3.064 4.319 6.985-34.001 66.285-33.513 147.245-35.06 219.765-.787 36.9-2.083 73.21-1.505 110.12 37.002 2.68 71.609 3.15 108.697 3.64 57.11.87 114.24.39 171.33-1.45 20.85-.67 41.68-1.62 62.5-2.85 2.61.48 2.71.3 5.43.19 3.28-2.65 2.15-1 3.32-5.25 1.3 20.21 1.26 40.37 2.29 60.56 5.36 104.27 18.96 208.94 24.64 313 3.06 31.4 4.96 56.97 6.05 88.71l-2.13 2.82c-1.89.16-1.88.25-3.74.04 1.91 20.81 2.47 36.54 2.93 57.33-4.14 3.95-8.63 8.39-14.24 9.51l-2.17-.63c-1.21-2.49-1.11-2.41-1.43-5.2-3.73-25.6-19.26-48.06-38.95-64.28 2.39-5.5-8.8-84.36-10.21-95.81l-1.89-.28c1.35-1.91 1.19-1.77 2.18-3.91l-5.53.11c1.34-.6 2.13-1.09 3.4-1.82-1.75-12.6-2.75-29.05-3.96-41.97q-3.135-32.94-6.9-65.82c-7.22-64.7-16.11-133.68-20.78-198.51 11.97-1.72 38.57-2.4 51.3-3.11 3.9-.95 6.84-1.72 10.66-2.94-2.67-1.87-4.57-1.54-8.15-1.96-15.17.66-39.02 3.1-53.2 2.32-.05-6.69.84-27.85-.76-32.53l-2.63-1.07c-59.87 2.57-125.38 1.2-185.352.66-21.62-.03-43.237-.52-64.835-1.5-6.624-.29-19.967-.51-25.734-1.99-3.469-4.55-6.442-2.54-12.156-2.29-.031-10.52 1.275-21.93 1.307-33.01-5.664 9.46-11.034 24.3-17.358 32.45l-1.925-1.01c-1.037-3.07-.889-2.9-3.183-5.18 27.549-50.21 24.542-60.65 24.854-117.93-.74-11.74 2.734-28.38.324-39.62-3.775-17.61-11.821-37.06-10.737-55.35 5.192 9.77 7.516 23.61 10.926 34.68l1.13.38c1.377-3.75 3.475-33.78 4.312-40.74 5.076-42.19 14.154-76.88 32.616-115.26"/><path fill="#b9c3db" d="M1188.37 1369.79c3.62.01 8.63-.39 11.75 1.04l18.07 215.62c2.22 27.05 5.72 58.73 7.05 85.32-8.09-1.52-40.8 8.45-52.2 8.54-1.08 0-1.18.14-2.2.6l-5.53.11c1.34-.6 2.13-1.09 3.4-1.82-1.75-12.6-2.75-29.05-3.96-41.97q-3.135-32.94-6.9-65.82c-7.22-64.7-16.11-133.68-20.78-198.51 11.97-1.72 38.57-2.4 51.3-3.11"/><path fill="#b9c3db" d="M1170.84 1680.91c1.02-.46 1.12-.6 2.2-.6 11.4-.09 44.11-10.06 52.2-8.54l.75 3.24c.14 5.13.63 18.73 1.59 23.43 2.12 26.52 3.96 59.86 7.04 85.74 1.91 20.81 2.47 36.54 2.93 57.33-4.14 3.95-8.63 8.39-14.24 9.51l-2.17-.63c-1.21-2.49-1.11-2.41-1.43-5.2-3.73-25.6-19.26-48.06-38.95-64.28 2.39-5.5-8.8-84.36-10.21-95.81l-1.89-.28c1.35-1.91 1.19-1.77 2.18-3.91"/><path fill="#656f88" d="M1170.84 1680.91c1.02-.46 1.12-.6 2.2-.6 11.4-.09 44.11-10.06 52.2-8.54l.75 3.24c-9.66 4.05-31.51 6.32-42.32 8.2-3.96.69-9.6.74-13.12 1.89l-1.89-.28c1.35-1.91 1.19-1.77 2.18-3.91"/><path fill="#7a85a3" d="M1134.29 1333.61c22.2-.67 45.18-2.91 66.49-3.46.03 7.81.59 26.35-.81 32.76-3.12 1.71-5.36 1.52-9.09 1.98-15.17.66-39.02 3.1-53.2 2.32-.05-6.69.84-27.85-.76-32.53z"/><path fill="#090f1d" d="m1227.58 1698.44 1.01-3.29 1.2-.41c1.16 2.18 1.59 34.61 2.53 40.96l1.99 1.12 1.3-1.45c.92 1.82.39 1.22 1.27 2.05.35-13.79-1.08-22.04-3.56-35.31l-.12.43c-.74-2.01-.52-3.22-.57-5.44l.53 1.28 1.28-5.77c3.06 31.4 4.96 56.97 6.05 88.71l-2.13 2.82c-1.89.16-1.88.25-3.74.04-3.08-25.88-4.92-59.22-7.04-85.74"/><path fill="#b9c3db" d="M852.382 1345.23c2.517-6.8-1.399-12.25 5.987-14.45 5.767 1.48 19.11 1.7 25.734 1.99 21.598.98 43.215 1.47 64.835 1.5 59.972.54 125.482 1.91 185.352-.66l2.63 1.07c1.6 4.68.71 25.84.76 32.53a2933 2933 0 0 1-98.37 1.62c-10.09.02-37.32-.86-46.058 0-5.623-.64-11.72-.58-17.393-.65-28.259-.34-56.48-1.19-84.696-2.8-12.919-.74-26.792-.72-39.55-2.61.232-5.45.843-10.49 1.446-15.9z"/><path fill="#656f88" d="M897.358 1348.11c19.014-.7 37.257 1.03 56.317-.75-3.467 1-9.362 2.67-12.719 3.22-11.856 1.92-54.563 2.76-64.28.5 10.302.01 11.263.1 20.682-2.97"/><path fill="#35446f" d="M852.382 1345.23c6.122-.48 35.365 2.57 44.976 2.88-9.419 3.07-10.38 2.98-20.682 2.97-8.387-.48-15.674-1.44-23.617-4.21z"/><path fill="url(#d)" d="M846.213 1328.49c5.714-.25 8.687-2.26 12.156 2.29-7.386 2.2-3.47 7.65-5.987 14.45l.677 1.64c-.603 5.41-1.214 10.45-1.446 15.9 12.758 1.89 26.631 1.87 39.55 2.61 28.216 1.61 56.437 2.46 84.696 2.8 5.673.07 11.77.01 17.393.65-8.629.91-16.365.3-24.92.58-7.838.27-15.392 1.5-23.295 1.8-.882 1.5-.753 1.07-.845 1.62-20.56.39-73.264-2-94.354-4.35-.134 14.97-4.099 38.64-6.342 53.87a2972 2972 0 0 0-11.144 80.15l-20.885 170.68-6.886 59.83c-1.141 10.81-2.126 25.41-3.706 35.83-1.988 1.4-1.141 1.81-3.801 3.14-1.453-2.26-.576-16.27-1.175-21.2-.069-20.25 4.495-36.05 5.87-55.44 4.051-57.08 13.371-113.13 20.762-169.8.618-4.74 1.65-10.99 1.853-15.64 1.964-44.84 12.427-88.69 17.492-133.22 1.731-15.27 4.933-32.86 4.337-48.19"/><path fill="#090f1d" d="M1137.68 1367.21c14.18.78 38.03-1.66 53.2-2.32 3.58.42 5.48.09 8.15 1.96-3.82 1.22-6.76 1.99-10.66 2.94-12.73.71-39.33 1.39-51.3 3.11-20.77-.49-45.53.57-66.69.71-42.07.24-84.131-.01-126.188-.78.092-.55-.037-.12.845-1.62 7.903-.3 15.457-1.53 23.295-1.8 8.555-.28 16.291.33 24.92-.58 8.738-.86 35.968.02 46.058 0 32.79.01 65.59-.53 98.37-1.62"/><path fill="#3f4351" d="m1165.31 1681.02 5.53-.11c-.99 2.14-.83 2-2.18 3.91-23.1 2.58-94.7 7.55-115.37 2.01 3.24-2.18 47.14-1.54 54.96-1.95 18.93-1.01 38.07-1.78 57.06-3.86"/><path fill="#7a85a3" d="M811.811 1672.22c13.543-.79 32.038 1.35 45.949 2.54 20.009 1.79 40.046 3.26 60.102 4.4l-.918 3.11-.764-.17c-14.626-1.41-29.945-1.26-44.564-3.09-18.921-2.38-41.484-2.05-59.805-6.79"/><path fill="#f6f8f7" d="M867.639 764.654c3.625-9.443 5.42-20.091 8.753-29.195 9.62-26.281 35.884-57.594 59.831-71.769 33.286-19.703 65.117-29.397 103.967-26.977 14.34.894 25.22-.25 40.85 3.998 29.27 7.955 58.93 28.277 80.05 49.807 8.13 11.839 17.45 25.756 23.99 38.449 5.63 10.921 5.26 20.237 12.32 31.36 8.44 4.839 19.82 12.625 23.62 21.832 9.45 22.854 7.31 54.807-.94 77.599-7.9 21.806-14.2 22.906-32.97 31.957-4.02 7.172-8.03 9.574-9.94 12.884-7.54 13.052-10.32 17.766-20.42 29.199-.23-4.053-.51-4.752-1.7-8.707-40.68 35.158-97.85 45.203-150.18 41.188a185.5 185.5 0 0 1-78.028-23.63c-1.214 2.714-2.117 4.923-3.712 7.462-17.554-18.258-33.511-25.995-44.279-54.097a119 119 0 0 1-5.783-1.383c-10.016-2.693-17.408-6.291-22.456-15.7-11.741-21.89-15.85-59.51-8.508-83.214 5.924-19.126 9.4-22.37 25.535-31.063"/><path fill="#000002" d="M867.639 764.654c3.625-9.443 5.42-20.091 8.753-29.195 9.62-26.281 35.884-57.594 59.831-71.769 33.286-19.703 65.117-29.397 103.967-26.977 14.34.894 25.22-.25 40.85 3.998 29.27 7.955 58.93 28.277 80.05 49.807 8.13 11.839 17.45 25.756 23.99 38.449 5.63 10.921 5.26 20.237 12.32 31.36 8.44 4.839 19.82 12.625 23.62 21.832 9.45 22.854 7.31 54.807-.94 77.599-7.9 21.806-14.2 22.906-32.97 31.957-4.02 7.172-8.03 9.574-9.94 12.884-7.54 13.052-10.32 17.766-20.42 29.199-.23-4.053-.51-4.752-1.7-8.707 30.53-29.668 35.85-69.185 37.61-109.265 10.16-231.34-324.704-227.382-321.435-1.582.748 51.696 11.922 95.47 55.617 128.405-1.214 2.714-2.117 4.923-3.712 7.462-17.554-18.258-33.511-25.995-44.279-54.097a119 119 0 0 1-5.783-1.383c-10.016-2.693-17.408-6.291-22.456-15.7-11.741-21.89-15.85-59.51-8.508-83.214 5.924-19.126 9.4-22.37 25.535-31.063"/><path fill="#f7ecf6" d="M1198.79 770.76c32.75 17.706 23.33 76.54 5.49 102.499-4.42 4.85-7.09 5.88-13.1 8.404 6.93-23.328 9.9-53.171 9.02-77.404-.34-9.371-2.49-24.812-1.41-33.499m-332.811 2.21c.844 5.513-2.763 23.578-3.049 30.506-1.169 18.173-1.069 36.127 3.039 53.941 1.322 5.729 9.251 26.499 6.567 30.256-3.019-.131-4.897-2.014-7.457-3.847-16.187-17.13-18.622-45.192-18.375-67.532.188-16.908 3.837-34.101 19.275-43.324"/><path fill="#061a3f" d="M1016.17 685.365c34.68-5.135 76.37 6.985 103.35 28.927 25.98 21.179 52.5 59.409 55.27 93.733 6.62 82.133-52.02 132.65-128.39 140.576l-1 .164c-37.72 2.616-84.073-2.78-114.91-26.169-25.694-19.488-38.099-47.373-42.01-78.248-4.848-38.269 1.568-73.801 26.416-104.017 27.642-33.615 58.973-49.753 101.274-54.966"/><path fill="#f6f8f7" d="M898.278 787.128c9.675-34.647 30.891-60.999 62.389-78.671a145 145 0 0 1 109.143-12.507c28.11 8.173 56.86 26.081 73.16 50.847-11.01-7.562-22.56-15.895-34.54-21.519-31.13-14.616-72.52-17.401-106.02-11.063-45.749 8.659-80.953 34.874-99.852 76.896-1.126-.866-3.159-2.921-4.28-3.983"/><path fill="#f6f8f7" d="M1114.8 750.802c15.88.785 23.27 13.833 27.95 27.626 9.71 28.656 5.19 55.963-7.85 82.745-1.58 2.814-4.88 3.94-7.32 3.033-7.43-2.758 2.88-25.419 3.43-32.396 2.52-31.674-2.79-52.9-16.21-81.008"/><path fill="#79cdf1" d="M950.99 838.53c9.817-.266 21.16-.11 30.761-.361 26.739-.699 35.529 1.458 55.059 18.791 6.91-4.028 12.33-9.282 20.37-3.883 4.72 8.197-3.1 14.211-9.02 18.813l-11.16-9.119c-5.86-4.146-25.33-15.111-31.7-16.273-26.554-4.849-59.049-.013-86.147-1.881-1.768-1.892-1.468-.82-1.42-3.113 4.265-3.87 26.362-2.894 33.257-2.974"/><path fill="#f6f8f7" d="M950.039 762.176c25.403 5.722-12.05 43.018-22.066 49.06-18.775-7.417-4.059-29.598 4.754-38.948 5.663-6.009 9.904-7.593 17.312-10.112"/><path fill="#79cdf1" d="m989.931 865.047 3.903 3.899c-2.481 1.446-2.334 1.323-4.064 3.618l-1.918.277c-10.72-.752-59.395 2.074-65.056-1.763l.05-1.534c8.296-8.627 60.023-.705 67.085-4.497"/><path fill="#6ceaec" d="M989.909 808.834c5.467-.738 10.491 3.112 11.201 8.582s-3.163 10.475-8.637 11.158c-5.435.678-10.397-3.163-11.102-8.594-.706-5.432 3.11-10.413 8.538-11.146"/><path fill="#79cdf1" d="M1017.08 885.882c12.21 1.849 13.85 9.174 5.67 18.112-14.39 5.361-16.81-10.931-5.67-18.112"/><path fill="#52b2c4" d="M989.931 865.047c2.399-4.32.76-2.85 4.605-5.065 6.294.788 7.864 5.663 9.344 11.135 1.74 6.637 1.44 11.436 2.5 17.988-6.37-5.909-11.801-10.792-18.528-16.264l1.918-.277c1.73-2.295 1.583-2.172 4.064-3.618z"/><path fill="#6ceaec" d="M989.931 865.047c2.399-4.32.76-2.85 4.605-5.065 6.294.788 7.864 5.663 9.344 11.135l-2.88 1.475c-3.553-.231-4.391-1.387-7.166-3.646z"/><path fill="#b9c3db" d="M898.278 787.128c1.121 1.062 3.154 3.117 4.28 3.983-2.804 7.424-5.54 18.177-7.978 26.135-.597-9.618 1.787-20.727 3.698-30.118m222.252 89.536c2.61.466 4.74.756 6.15 2.932-1.09 2.864-3.78 3.956-6.54 5.685l-3.09.523-1.86-1.429-.15-2.825c1.94-4.028.8-2.66 5.49-4.886"/><path fill="#7ec958" d="M1170.38 241.053c19.67 28.522 30.99 55.013 34.7 89.457 5.91 48.4-7.35 86.413-36.55 124.561-53.08 69.334-170.428 71.217-233.694 15.723-31.492-27.623-45.569-61.93-50.855-104.12-18.428-147.096 157.709-240.067 268.009-142.981 6.16 5.445 12.98 12.736 18.39 17.36"/><path fill="#b9f981" d="M1108.28 485.327c-8.11 4.309-34.25 11.271-43.15 12.336-81.511 9.761-156.395-44.263-167.811-125.99a156.47 156.47 0 0 1 30.659-116.495c27.132-35.793 51.608-50.74 95.522-57.361 97.94-14.766 175.56 62.03 169.52 159.161-1.1 17.797-7.37 50.711-18.4 65.014-11.19 24.092-39.98 53.851-65.38 63.001z"/><path fill="#7ec958" d="M1000.21 251.852c18.68-13.15-6.052-25.257-6.767-33.556 10.097-11.185 63.507-13.553 76.887-10.629 60.87 13.302 110.68 60.049 111.97 124.858.43 22.184.01 41.082-7.46 62.125-3.11 9.404-9.98 17.767-12.44 24.132-11.4 17.049-39.3 45.568-56.15 55.884-30.75 13.848-54.7 18.332-88.17 11.848-38.951-8.446-67.817-25.387-90.2-58.261-25.414-37.325-26.011-68.34-18.785-111.341 1.023-6.089 5.269-25.808 9.907-28.861l1.014 1.173c3.206-11.03 7.983-24.303 20.894-24.999l-1.632-2.202c.051-.667.077-1.919.514-2.392 9.068-9.81 34.494-45.092 49.655-40.13.018 1.657.55 2.861-1.139 3.92-12.042 7.55-37.187 17.527-35.023 34.473 2.796 4.828 4.353 6.173 8.233 10.09 19.29.566 24.096-3.643 38.692-16.132"/><path fill="#e0fbc9" d="M920.016 289.224c3.206-11.03 7.983-24.303 20.894-24.999 5.615 6.279 4.107 12.749 2.89 20.568-7.47 7.606-13.725 12.76-23.784 4.431"/><path fill="#f6f8f7" d="m1097.21 281.405 27.65.803c-.56 40.619-.44 81.245.33 121.86-9.8-.025-18.19-.054-28 .683zm-42.49 46.616c9.86-.2 19.71-.258 29.56-.175l-.52 76.405c-9.07-.229-19.91.369-29.11.647.61-24.868-.65-50.711.07-76.877"/><path fill="#e0fbc9" d="M1121.75 417.485c7.18-.267 10.32-1.769 14.41 4.878-.18 3.357-1.91 5.72-5.63 5.757-11.14.111-22.21-.237-33.38-.086-39.63.44-79.27.429-118.9-.033-7.256.21-16.506 1.77-20.773-5.287l.734-1.697c5.947-4.646 50.189-3.006 59.859-3.022q51.84.135 103.68-.51"/><path fill="#f6f8f7" d="m1013.79 344.132 27.02.741c-.75 12.931 1.3 52.229-.06 59.799-8.41.093-19.62-.123-27.71 1.083-1.55-19.572-.8-42.048.75-61.623"/><path fill="#e0fbc9" d="M1037.76 284.44c6.42 3.255 24.3 21.057 29.73 26.904-12.03 12.85-16.54 2.137-27.65-7.724-16.73 15.358-32.87 27.257-49.89 41.676-7.31 6.488-11.287 9.292-19.953 13.561-4.938-2.415-7.786-3.476-10.748-8.021-.243-3.324-.757-2.034 1.769-3.157 3.695-1.643 12.606-4.857 15.558-6.985 16.136-11.628 53.224-39.062 61.184-56.254"/><path fill="#f6f8f7" d="m996.835 369.668.486.32c1.128 3.173 1.307 29.768 1.413 35.005-8.943-.307-18.527-.078-27.521-.026-2.684-4.079-1.996-27.727-2.046-34.162zm-43.55-111.774c5.705-17.368 23.416-26.581 39.249-33.224 11.956 8.116 14.396 14.5 7.676 27.182-14.596 12.489-19.402 16.698-38.692 16.132-3.88-3.917-5.437-5.262-8.233-10.09"/><path fill="#e0fbc9" d="M1162.4 418.782c.27 8.362-11.36 13.272-10.52 22.263 3.1 2.517 2.21 1.732 6.79 2.335 5.04-4.497 12.13-20.025 15.55-22.887l.4 1.499c-11.19 24.092-39.98 53.851-65.38 63.001l-.96.334c1.91-4.787 10.46-5.862 15.89-10.069l.08-2.374c-1.81-3.343-1.8-3.166-4.72-5.264-4.86 1.355-8.54 8.489-13.2 9.594l-.08-2.548c16.85-10.316 44.75-38.835 56.15-55.884"/><path fill="#dcc863" d="M309.033 1021.52c27.687-74.864 106.211-117.983 184.243-101.167 78.032 16.815 131.828 88.447 126.223 168.077-5.606 79.62-68.906 143.01-148.524 148.73-79.619 5.72-151.327-47.98-168.253-125.98a160.44 160.44 0 0 1 6.311-89.66"/><path fill="#fcf080" d="M464.395 930.872c81.304 2.78 144.976 70.918 142.251 152.218-2.726 81.31-70.819 145.03-152.127 142.35-81.384-2.67-145.175-70.84-142.447-152.22 2.729-81.385 70.942-145.131 152.323-142.348"/><path fill="#eec94f" d="M444.516 940.085c75.313-8.026 143.087 45.985 152.072 121.195 8.985 75.2-44.157 143.66-119.242 153.6-49.429 6.54-98.558-14.01-128.604-53.8s-36.363-92.67-16.537-138.42c19.827-45.745 62.731-77.291 112.311-82.575"/><path fill="url(#e)" d="M449.639 1009.49c32.365.33 63.838-.15 96.303.44-.476 41.82 4.239 102.96-1.424 143.09-20.578 1.46-51.709.73-73.018.8l-56.618.24c-12.486.04-30.918.87-42.419-1.71-2.242-13.92-.707-42.15-.679-57.34.05-26.97-.511-54.66.589-81.49 27.055-4.49 49.947-3.73 77.266-4.03"/><path fill="#eec94f" d="M385.722 1022.8c32.473-.66 64.956-.8 97.434-.42 16.2.08 35.094.85 51.006.35.165 25.85 2.694 73.41-3.015 96.43-12.811-23.36-27.212-37.67-44.068-56.89-5.14 7.13-37.28 40.83-43.818 45.75-3.333.21-20.266-15.58-24.043-18.94-.707-.63-1.407-1.26-2.099-1.9-5.425 7.22-12.089 15.61-17.155 22.92-4.159 6.26-10.292 13.46-15.604 18.79-1.219-9.95-2.329-102.71-.143-106.28z"/><path fill="#dcc863" d="M384.36 1128.89c-1.219-9.95-2.329-102.71-.143-106.28l1.505.19-1.311 1.71c-.719 28.2-.231 56.69-.046 84.91l.621 1.65c5.021 1.75 9.711.22 14.978-.97-4.159 6.26-10.292 13.46-15.604 18.79"/><path fill="#e0fbc9" d="M430.983 1041.99c.424-.02.85-.04 1.275-.04 9.458-.05 14.954 5.98 21.384 12.2-4.63 8.57-3.422 13.1-11.963 16.91-3.677.89-8.276 2.73-11.918 4.05-3.126-6.33-6.807-11.07-10.93-16.78 3.866-8.77 5.282-10.21 12.152-16.34"/><path fill="#dcc863" d="M381.247 1137.88c50.612 1.01 100.989-.39 151.108.63 2.489 1.7 1.96 2.27 3.178 5.85-.857.49-1.714.99-2.571 1.48-38.58-1.61-80.462-.67-118.834-.79-15.078-.04-19.514.22-29.358-.18-2.271-1.54-2.628-4.2-3.523-6.99"/><path fill="#fcf080" d="M357.197 995.273c2.585.263 3.431.466 5.966.973-1.197 4.924-10.656 21.464-13.805 25.864l-3.08-.54c-5.994-5.72 6.888-20.56 10.919-26.297"/><path fill="#7a3fc2" d="M1618.93 523.463c67.65 48.08 86.68 140.255 43.6 211.2s-133.65 96.563-207.51 58.7-105.94-126.348-73.49-202.745 118.39-114.76 196.93-87.899a158.6 158.6 0 0 1 40.47 20.744"/><path fill="#7f37dd" d="M1584.24 785.6c-65.09 27.818-140.75 4.771-179.27-54.606-38.53-59.377-28.75-137.863 23.18-185.964 51.92-48.101 130.93-51.867 187.19-8.921s73.47 120.144 40.76 182.916a145.5 145.5 0 0 1-71.86 66.575"/><path fill="#c47ef7" d="M1584.24 785.6c-65.09 27.818-140.75 4.771-179.27-54.606-38.53-59.377-28.75-137.863 23.18-185.964 51.92-48.101 130.93-51.867 187.19-8.921s73.47 120.144 40.76 182.916c-2.61-5.269-.99-7.288-7.43-10.028 19.8-51.286 18.33-99.97-17.73-145.868-42.58-54.183-130.01-60.602-184.73-21.339-4.05 2.91-19.61 19.833-19.94 24.219l1.17.971c19.5 6.937 2.73 20.938-5.7 29.421-4.09-2.396-8.06-3.891-8.88-8.94l-2.1-1.361c-4.89 3.225-12.02 25.38-13.27 32.008-7.09 37.555-3.25 80.487 19.01 112.384 31.03 44.487 89.62 70.2 142.77 54.809 4.11-1.192 13.82-4.34 17.63-4.928 2.94 2.998 3.5 4.058 7.34 5.227"/><path fill="#f9d7f0" d="M1648.67 708.997c6.44 2.74 4.82 4.759 7.43 10.028a145.5 145.5 0 0 1-71.86 66.575c-3.84-1.169-4.4-2.229-7.34-5.227 22.47-10.272 60.66-48.16 71.77-71.376"/><path fill="#f7ecf6" d="M1570.77 610.9c17.86 17.706 36.1 30.605 54.01 49.755-2.68 3.11-5.25 6.178-8.12 9.12l-.62 2.785c-9.62 8.37-27.85 30.385-41.07 30.556-6.13 2.95-12.64 15.929-19.8 16.172.62-2.284 6.64-6.653 9.01-8.692-.13-5.199-5.62-7.554-9.72-16.313 7.32-10.072 27.16-20.971 37.16-29.578 6.46-5.561-.89-4.875-.73-9.208l3.65 2.208c-1.6-7.425-25.61-19.688-27.2-28.627-3.05-3.522-3.34-2.712-3.81-6.523 1.97-5.296 4.48-6.562 7.24-11.655"/><path fill="#7a3fc2" d="M1567.34 629.078c9.25 7.714 27.35 22.338 34.46 31.442-9.44 6.133-38.44 27.084-45.69 34.508 3.12 4.005 6.52 8.23 9.54 12.275 16.1-11.723 35.75-25.292 51.01-37.528l-.62 2.785c-9.62 8.37-27.85 30.385-41.07 30.556-6.13 2.95-12.64 15.929-19.8 16.172.62-2.284 6.64-6.653 9.01-8.692-.13-5.199-5.62-7.554-9.72-16.313 7.32-10.072 27.16-20.971 37.16-29.578 6.46-5.561-.89-4.875-.73-9.208l3.65 2.208c-1.6-7.425-25.61-19.688-27.2-28.627"/><path fill="#f7ecf6" d="M1543.06 592.226c6.34.696 13.25-2.223 16.44 2.661l-1.06 4.864c1.98 3.269 1.96 1.791 1.53 4.663-3.44 3.072-14.07 27.579-13.21 31.492 3.23-5.306.76-6.419 4.54-8.747l2.24.431c2.35 5.329-10.29 24.766-13.98 29.03l-.99-2.034c-8.05 11.11-18.19 50.749-27.65 61.783l.06 1.183-.57-.494-.09.89 2.53-.458c-1.1 3.322-.16 1.914-3.2 4.151-4.42.714-10.15-.357-13.25-3.748l-1.31-2.417c-.51-6.33 41.37-106.495 47.97-123.25"/><path fill="#7a3fc2" d="M1558.44 599.751c1.98 3.269 1.96 1.791 1.53 4.663-3.44 3.072-14.07 27.579-13.21 31.492 3.23-5.306.76-6.419 4.54-8.747l2.24.431c2.35 5.329-10.29 24.766-13.98 29.03l-.99-2.034c-8.05 11.11-18.19 50.749-27.65 61.783l.06 1.183-.57-.494-.09.89 2.53-.458c-1.1 3.322-.16 1.914-3.2 4.151-4.42.714-10.15-.357-13.25-3.748 3.06.2 7.49 1.236 10.33.083 6.46-2.629 45.69-104.797 51.71-118.225"/><path fill="#f7ecf6" d="M1483.11 607.853c1.05-.068 2.09.263 3.19.488 3.82 4.061 5.78 8.937 8.29 13.983-15.63 7.676-32.01 21.373-45.87 32.384l42.26 35.249c-3.44 4.175-7.07 9.343-11.61 11.935-14.37-13.891-38.26-34.795-54.16-48.094 17.45-14.441 39.03-33.896 57.9-45.945"/><path fill="#c47ef7" d="m1479.4 532.217 8.98.897c.83 3.074 2.7 9.448 2.52 12.394-1.07 18.044-27.28 27.822-41.64 31.923-3.84-1.364-10.75-13.486-12.68-17.356 9.64-11.959 27.21-26.151 42.82-27.858"/><path fill="#3c8bd3" d="M534.224 457.315c85.564-9.232 162.525 52.363 172.265 137.871s-51.398 162.833-136.847 173.08c-86.169 10.333-164.289-51.432-174.11-137.661s52.406-163.98 138.692-173.29"/><path fill="#3c8bd3" d="M621.945 737.827c-27.854 17.549-70.358 19.593-101.963 13.837-32.098-6.73-59.447-23.802-78.617-50.475-25.433-35.388-33.466-61.466-29.02-104.212 4.89-47.018 23.916-75.746 62.708-102.132a138.4 138.4 0 0 1 103.598-21.057 137.06 137.06 0 0 1 88.6 58.798c22.754 34.014 28.541 69.06 20.485 109.294-8.572 41.073-25.985 76.797-65.791 95.947"/><path fill="#79cdf1" d="M621.945 737.827c-27.854 17.549-70.358 19.593-101.963 13.837-32.098-6.73-59.447-23.802-78.617-50.475-25.433-35.388-33.466-61.466-29.02-104.212 4.89-47.018 23.916-75.746 62.708-102.132a138.4 138.4 0 0 1 103.598-21.057 137.06 137.06 0 0 1 88.6 58.798c22.754 34.014 28.541 69.06 20.485 109.294l-1.135-1.954-.699.655-.72-.298c-1.325-2.788-1.35-4.119-1.789-7.12 9.492-61.637-24.852-121.658-82.801-144.704s-124.134-3.006-159.565 48.315-30.71 120.313 11.38 166.33 110.388 56.858 164.658 26.134c1.479 3.214 2.458 6.045 4.88 8.589"/><path fill="url(#f)" d="M683.393 633.163c.439 3.001.464 4.332 1.789 7.12l.72.298.699-.655 1.135 1.954c-8.572 41.073-25.985 76.797-65.791 95.947-2.422-2.544-3.401-5.375-4.88-8.589a133.81 133.81 0 0 0 66.328-96.075"/><path fill="#ccf8fa" d="M485.74 532.844c21.138-2.947 75.772-4.073 96.897-1.103 3.277 2.513 38.08 37.744 38.088 38.084.908 38.282 5.225 88.354.018 126.022l-79.976.319c-16.974.061-38.676 1.55-54.72-2.737l-.018-100.145c.017-12.689.761-36.833-.199-48.864.273-4.67.275-6.916-.09-11.576"/><path fill="#3c8bd3" d="M572.184 540.568c5.491-2.117 11.728.893 12.732 6.95 1.541 8.006 21.617 19.935 27.61 27.575l-.436 5.857c1.398 5.448-.071 45.931.018 55.059.156 15.924 1.145 36.355.586 51.854-36.878 1.049-81.244-.292-118.543-.8 1.523-13.875.896-41.602.953-56.33q.41-44.217.31-88.438c24.217-.462 53.046.248 76.77-1.727"/><path fill="#ccf8fa" d="M572.184 540.568c5.491-2.117 11.728.893 12.732 6.95 1.541 8.006 21.617 19.935 27.61 27.575l-.436 5.857c-34.937 11.54-43.916-9.563-39.906-40.382"/><path fill="#3c8bd3" d="M612.526 575.093c-6.21 1.267-15.973 1.723-21.954-.727-10.664-4.368-15.298-18.974-10.756-29.471l1.474-.375 3.626 2.998c1.541 8.006 21.617 19.935 27.61 27.575"/><path fill="#ccf8fa" d="M510.239 625.219c24.432-.78 51.316.682 75.895.712 4.668.006 7.887-.035 10.791 3.068.106 3.771.557 2.108-1.092 5.243-21.11-.752-62.128.527-85.178-.699l-2.263-1.887c-.262-3.793-.212-2.572 1.847-6.437m-1.128 24.115c14.829-.852 32.424-.292 47.389-.298 9.848-.004 29.023-.27 38.041 1.332 2.056 2.411 1.391 1.672 1.211 5.908-10.145 1.281-31.606.872-42.371.876-11.77.005-31.365.58-42.652-.495-2.329-3.208-1.56-2.474-1.618-7.323m2.008-48.24c14.905-.376 31.007.384 46.051.593 11.877.165 26.656-.279 38.077.727 1.845 3.477 1.202 2.898 1.128 7.408-19.662-2.895-62.16.325-84.286-1.225-1.701-2.552-1.001-3.749-.97-7.503m2.336-26.175c8.068-.24 39.312-1.516 44.28 2.681.316 3.252.522 1.672-.964 4.852-6.934.695-37.824 1.722-43.496-.042-1.341-3.053-.542-3.456.18-7.491"/><path fill="#57aeef" d="m511.693 496.184.3 22.608c-7.142-.569-25.394 7.293-27.505 13.193l1.252.859c.365 4.66.363 6.906.09 11.576-1.779-12.609-5.61-9.824-14.657-18.628 8.706-21.203 19.767-23.879 40.52-29.608m-47.072 34.69c3.75 5.18-7.158 22.371-11.884 25.389-3.756 2.398-6.522 1.295-10.522.57-1.4-1.117-.929-.848-1.708-2.808.781-5.113 3.654-9.622 6.107-14.296 6.056-3.311 11.497-6.524 18.007-8.855"/><path fill="#40b5bb" d="M1710.96 1224.01c-59.45 61.73-157.62 63.8-219.62 4.62s-64.5-157.34-5.6-219.6c58.89-62.265 157.04-65.211 219.57-6.59s65.91 156.75 7.57 219.54c-.63.68-1.27 1.36-1.92 2.03"/><path fill="#40b5bb" d="M1664.11 1245.78c-2.87 2.55-9.93 5.77-13.53 7.23-71.77 28.99-155.35-6.82-186.58-77.11-12.89-29.01-15.66-84.12-3.38-113.84 13.19-31.94 43.99-65.541 76.39-78.67 52.35-18.963 113.05-20.753 156.31 18.97 23.34 21.43 31.51 29.3 42.78 60.52 15.46 42.84 12.19 71.26-5.43 111.74-14.01 30.69-36.47 55.37-66.56 71.16"/><path fill="#6ceaec" d="M1664.11 1245.78c-2.87 2.55-9.93 5.77-13.53 7.23-71.77 28.99-155.35-6.82-186.58-77.11-12.89-29.01-15.66-84.12-3.38-113.84 13.19-31.94 43.99-65.541 76.39-78.67 52.35-18.963 113.05-20.753 156.31 18.97 23.34 21.43 31.51 29.3 42.78 60.52 15.46 42.84 12.19 71.26-5.43 111.74-2.7-2.82-1.07-2.07-5.12-2.16 1.66 3.55 1.6 3.34 1.16 7.26-1.53-1.21-2.06-1.46-3.8-2.25l1.12-1.98c-1.07-3.15-1.11-4.48-1.48-7.71.97-2.82 1.84-5.67 2.64-8.55 10.95-40.36 8.24-78.16-12.84-114.43a127.23 127.23 0 0 0-76.87-59.255c-22.34-5.868-46.91-2.373-69.34 1.468-6.87 1.177-21.08 3.88-26.59 7.515-7.48 4.937-39.67 27.582-40.37 35.432 1.58 3.48 1.4 3.52 4.5 6.04 2.25 4.59 4.07 8.19 2.23 13.36a15.72 15.72 0 0 1-8.93 9.23c-6.68 2.63-10.65-.09-11.09-7.3l-1.09-3.39-1.25-.49c-2.76 3.77-3 6.55-4.97 10.71a139.87 139.87 0 0 0-11.4 80.42c5.35 33.87 29.54 68.79 57.07 89.08 30.12 22.21 71.29 23.16 106.92 18.03 9.14-1.31 18.24-6.08 22.72-6.83 3.36 5.26 4.1 3.25 10.22 6.96"/><path fill="#ccf8fa" d="M1722.55 1167.78c.37 3.23.41 4.56 1.48 7.71l-1.12 1.98c1.74.79 2.27 1.04 3.8 2.25.44-3.92.5-3.71-1.16-7.26 4.05.09 2.42-.66 5.12 2.16-14.01 30.69-36.47 55.37-66.56 71.16-6.12-3.71-6.86-1.7-10.22-6.96 28.77-15.27 53.07-42.78 68.66-71.04m-142.82-122.38c.24-.04.48-.09.72-.13 39.78-1.13 65.62-2.56 96.23 23.07 1.83 21.58.68 44.15.68 65.76 0 21.39 3.78 40.72-20.8 50.79-11.53 4.73-21.01 7.26-33.33 9.04-29.5 1.48-71.11 2.99-93.2-21.35-8.76-9.65-5.31-26.44-5.13-38.67.29-20.7-.64-42.61 1.26-63.25 11.38-18.22 33.64-23.02 53.57-25.26"/><path fill="#40b5bb" d="M1581.54 1053.33c70.37-10.18 133.16 39.1 37.82 50.29-19.17 1.75-60.1-.26-75.36-11.02-35.04-24.69 22.8-37.2 37.54-39.27m-47.27 83.46c40.86 24.2 93.05 18.86 135.57 1.98.4 9.79 2.14 22.44-5.35 29.55-27.05 25.68-92.48 20.95-120.98 3.38-5.23-3.93-8.08-5.32-10.26-11.27-1-9.1.08-14.53 1.02-23.64"/><path fill="#52b2c4" d="M1533.25 1160.43c6.21-.92 10.25.33 12.05 6.92-.59 1.48-1.13 2.89-1.79 4.35-5.23-3.93-8.08-5.32-10.26-11.27"/><path fill="#40b5bb" d="M1533.6 1097.53c32.65 15.68 65.5 19.51 101.37 12.55 11.12-2.16 23.72-7.89 34.32-12.21 1.1 12.32 2.9 18.75-3.8 29.2-28.22 26.1-103.87 21.41-132.36-4.32-.28-9.64-.28-15.66.47-25.22"/><path fill="#ccf8fa" d="M1543.73 1002.08c27.96-2.179 3.61 30.86-19.48 36.09-8.49.08-9.49-4.81-12.33-11.38 9.01-13.06 17.44-18.39 31.81-24.71M661.259 842.617l2.965.997c15.698 5.118 20.017 17.22 16.368 32.604-4.174 10.401-7.821 12.888-18.17 16.588-11.481.561-19.782-2.854-26.044-12.822-5.116-5.357-2.881-13.901-1.971-20.637 7.14-11.313 14.522-14.23 26.852-16.73"/><path fill="#2a859a" d="m661.259 842.617 2.965.997c15.698 5.118 20.017 17.22 16.368 32.604-2.622-.795-1.335-.774-3.995-.042l-1.763-1.517c.812-6.014-.129-11.871-3.932-16.782a16.18 16.18 0 0 0-11.23-6.279c-12.983-1.22-19.992 12.396-17.24 24.133l.378 1.681.258 1.08.505 4.112-.947.964c-2.709-1.176-3.933-2.382-6.248-3.584-5.116-5.357-2.881-13.901-1.971-20.637 7.14-11.313 14.522-14.23 26.852-16.73"/><path fill="#19727f" d="m674.834 874.659 1.763 1.517c2.66-.732 1.373-.753 3.995.042-4.174 10.401-7.821 12.888-18.17 16.588-2.614-2.963-1.615-1.231-2.276-5.788 6.823-.895 11.719-6.563 14.688-12.359"/><path fill="#278d92" d="M643.068 878.492c7.047 6.539 7.478 6.854 17.078 8.526.661 4.557-.338 2.825 2.276 5.788-11.481.561-19.782-2.854-26.044-12.822 2.315 1.202 3.539 2.408 6.248 3.584l.947-.964z"/><path fill="#2a859a" d="M841.953 530.447c1.965.441 2.707.794 4.599 1.504 5.229 5.499 3.634 15.96 3.581 23.968 7.243-.064 19.487-1.23 24.601 4.693-.368 7.688-18.994 6.063-24.795 5.896-.02 9.911 3.184 21.861-5.605 28.001-7.805-4.613-6.285-19.172-6.471-27.745-7.055.237-25.162 1.648-28.179-5.862 4.864-6.84 20.649-5.426 28.495-5.122-.321-8.705-2.566-18.981 3.774-25.333"/><path fill="#52b2c4" d="M1304.63 374.777c9.43 1.367 24.33 8.038 32.27 13.666-1.3 5.356-2.55 9.695-5.64 14.246-7.5-1.853-17.41-4.86-24.16-8.508-9.98-5.384-7.66-11.898-2.47-19.404m-453.192-4.904c3.592-.131 6.924-.829 9.669 1.111 1.6 3.136 1.53 5.636 1.861 9.146-5.204 11.803-46.047 13.498-40.575-1.795 5.622-5.249 21.481-7.968 29.045-8.462m-54.444 16.353 3.066-.426c2.989 1.353 2.991 1.957 4.495 5.066 5.697 11.77-20.297 18.606-27.355 20.317-1.907.035-3.255-.12-5.154-.272-4.391-3.082-6.244-9.519-2.103-13.21 6.47-5.766 19.059-8.896 27.051-11.475m-104.928 55.351c12.439 5.679 13.006 16.099 2.635 24.566-3.867 3.157-6.602 7.164-11.133 9.068-6.012-2.243-9.706-6-14.383-10.202 4.011-5.462 17.57-18.362 22.881-23.432m667.104-39.305c10.89 1.511 38.93 12.915 27.14 28.191-9.21 1.394-24.91-7.505-30.36-15.217-1.83-2.596 1.9-9.983 3.22-12.974m53.06 35.436c10.67.858 34.59 19.752 18.74 33.367-8.94-2.425-21.15-16.471-26.55-23.86 3.03-4.474 3.99-5.711 7.81-9.507"/><path fill="#79cdf1" d="M721.959 328.357c7.427-.764 14.273.448 17.22 8.442a12.42 12.42 0 0 1-.448 9.572c-2.173 4.604-5.489 5.513-9.996 7.233-15.85 1.926-23.819-18.668-6.776-25.247"/><path fill="#52b2c4" d="M738.273 412.942c4.416-.088 7.371.682 10.699 3.4 4.054 10.182-14.719 19.478-22.209 23.069-5.782-1.499-10.672-3.135-10.789-9.801 3.981-8.115 14.296-12.957 22.299-16.668m502.797-51.687c10.88-1.665 44.06-.526 30.87 18.531-8.05.734-45.14-2.554-30.87-18.531"/><path fill="#000002" fill-opacity=".988" d="M780.881 1363.04c22.473-10.89 29.271-22.34 44.173-41.3 2.294 2.28 2.146 2.11 3.183 5.18l1.925 1.01c-10.244 14.1-24.553 34.74-41.04 41.88-2.577-1.82-4.316-1.53-7.287-3.02z"/><path fill="#52b2c4" d="M459.4 827.101c2.054-.031 7.06-.24 8.627.765 10.374 6.654 4.744 25.018-.33 32.436-3.564 1.154-7.423 2.457-10.941 1.125-3.125-6.188-1.629-27.986 2.644-34.326m14.766-52.906c1.833.19 2.391.507 4.165 1.072 6.875 8.236 2.697 22.367-2.098 30.926-.619 1.106-2.228.679-3.482.676-4.191-.557-7.747-.541-10.524-3.385-.525-8.416 2.499-18.927 4.824-26.972 2.235-2.227 3.26-1.67 7.115-2.317m-19.249 108.22c4.138-.451 5.123-.569 9.218-.216 7.99 4.278 9.3 15.689 2.608 20.398-14.204.103-18.874-8.282-11.826-20.182"/><path fill="#000002" fill-opacity=".953" d="m1017.9 1537.89 2.86.27c2.24 4.33 7.18 45.75 6.56 50.84l-.92 1.47-2.22-.61-.52.3c-3.68-11.84-5.61-39.79-5.76-52.27"/><path fill="#000002" fill-opacity=".961" d="M1005.14 1552.22c1.28 4.96-6.507 45.68-7.848 53.91l-.831-6.37c-.455 2.46-.129 2.31-1.303 4.33l-.459-2.99-.958 3.04-.86-.2c1.268-9.59 6.17-40.82 9.439-48.79 1.27-1.13 1.75-1.53 2.82-2.93"/><path fill="#52b2c4" d="M1446.82 480.276a7.14 7.14 0 0 1 7.15 1.252 7.142 7.142 0 0 1-2.5 12.26 7.149 7.149 0 0 1-4.65-13.512"/><path fill="#090f1d" d="M1390.27 1257.24c4.74 2.36 8.31 5.29 12.5 8.53-3.61.86-6.91 2.41-10.12 3.15l-9.12-7.1c4.75-1.28 3.07-.52 6.74-4.58"/></svg>