<svg xmlns="http://www.w3.org/2000/svg" width="512" height="512" preserveAspectRatio="none" style="display:block" viewBox="0 0 2048 2048"><defs><linearGradient id="c" x1="1363.45" x2="1256.87" y1="318.848" y2="331.442" gradientUnits="userSpaceOnUse"><stop class="stop0" offset="0" stop-color="#e2751c"/><stop class="stop1" offset="1" stop-color="#d36f48"/></linearGradient><linearGradient id="b" x1="936.728" x2="974.813" y1="1166.62" y2="1181.55" gradientUnits="userSpaceOnUse"><stop class="stop0" offset="0" stop-color="#000916"/><stop class="stop1" offset="1" stop-color="#07002d"/></linearGradient><linearGradient id="a" x1="1131.69" x2="1053.82" y1="1668.14" y2="477.984" gradientUnits="userSpaceOnUse"><stop class="stop0" offset="0" stop-color="#02020f"/><stop class="stop1" offset="1" stop-color="#051b23"/></linearGradient></defs><path fill="url(#a)" d="M913.732 546.205c9.242-8.743 16.774-21.468 25.668-30.755 28.258-29.506 64.02-37.087 103.44-36.715 28.73-.19 56.04 7.175 80.05 22.527 30.37 19.99 53.65 51.69 94.87 36.977 9.47-3.38 29.71-14.969 38.89-5.956 20.4 20.023 16.53 58.295 4.39 82.168 12.41 1.056 18.49-.486 29.98-5.253 3.22-1.335 19.85-9.032 21.2-4.682 10.81 34.711-10 64.874-40.05 79.176 8 1.702 23.6 4.047 28.84 10.257 8.3 27.159-25 47.613-46.79 53.455-17.62 4.725-39.54 5.802-57.64 4.009l-.36 1.202c-3.11 10.663-4.58 22.848-6.96 32.663-4.68 19.32-19.97 67.438-29.87 82.861l-1.65 2.975-.5.976c-12.26 23.41-28.57 44.553-47.02 63.414-2.89 2.957-27.02 17.453-27.02 18.189.05 10.743 1.39 19.91-.67 30.682 1.4 2.709 27.81 18.905 33.34 23.615 47.51 40.49 54.99 108.14 72.08 164.55 9.16 30.22 12.99 63.12 21.03 93.76 4.48 19.88 17.08 51.25 15.21 72.18 20.15 3.45 28.3-.74 48.07 8.77.45-11.19 5.53-25.16 8.43-36.6l21.54-83.07c6.4-24.44 11.71-49.32 19.32-73.42 4.62-13.38 4.67-27.29 16.03-37.17 21.84-18.98 54.91-13.94 81.79-16.35 24.31-1.52 51.77-5.9 75.93-6.35 40.92-.76 81.1-5.66 121.71-7.4 50.24-2.15 99.83-6.39 149.99-9.93 27.06-1.91 54.12-5.98 81.42-4.75 24.17 1.15 29.75 13.85 24.97 35.27-5.18 23.18-14.4 43.79-21.74 65.61l-44.79 136.14-49.56 151.36c-7.85 24.23-23.5 85.06-39.05 103.61-36.96 12.34-75.67 15.04-113.82 22.65-37.27 7.43-77.8 22.19-115.65 25.31-31.02 2.56-58.8 11.18-89.4 17-41.18 7.03-82.34 15.51-123.07 24.83-8.53 1.98-34.03 7.85-41.7 6.07-5.89.16-11.54 2.23-17.08 4.3-12.18.89-21.55 2.73-33.91 2.21-15.6-.65-27.61-6.33-41.75-9.11l-119.25-23.41c-23.883-4.92-50.787-6.83-74.182-13.51-23.467-6.69-46.142-8.41-69.904-13.54-11.066-2.39-22.338-4.74-33.497-6.64l-5.976-1.74c-13.284-2.57-83.489-16-90.845-22.25-6.136-5.22-6.015-20.32-6.676-27.88-16.174 1.51-32.33 2.56-48.484 4.03-11.35 1.04-23.174 3.78-34.534 5a1601 1601 0 0 1-85.88 6.18c-39.331 1.7-84.494.48-123.816-.73-29.422-.9-71.359-18.51-90.095-41.66-18.512-22.87-23.746-41.25-19.264-70.42 1.679-10.89.621-26.82 2.995-37.3 11.752-51.87 26.849-103.48 45.85-153.18 5.686-14.87 8.489-29.19 15.165-44.67 9.857-28.09 21.036-54.98 31.738-82.72 24.036-62.3 55.617-116.5 109.705-158.877 5.298-3.248 8.312-5.365 13.229-9.133 3.154-1.281 11.278-7.292 14.54-9.585-4.446-4.478-7.166-6.678-9.71-12.571 1.253-24.573 14.075-61.693 24.8-84.484.679-1.936 8.606-14.412 10.214-16.988 2.972-4.923 7.353-13.599 10.025-17.517 13.031-19.107 41.258-39.843 63.963-44.901 43.095-9.6 98.115-5.208 141.799-.365 7.473.829 14.719 2.771 21.895 4.505 5.272 1.274 12.52 6.064 15.882 5.354l.74-1.539c-.935-1.598-4.477-6.351-4.809-7.191-11.35-28.698-22.988-53.355-18.943-85.147.744-5.852-.503-14.66 1.059-20.693.815-3.975 3.646-6.277 3.426-11.882-12.158-17.997-13.669-21.878-15.769-43.541-5.942-61.291 40.96-79.955 96.471-72.26"/><path fill="#2f60c1" d="M1206.57 1636.91c42.55-8.77 86.18-16.27 129.02-24.5l220.18-42.8c40.51-7.7 80.82-17.12 121.59-23.61 7.57-1.2 37.62-9.5 41.75-6.23.84 6.43-4.68 14.48-11.17 15.78-14.39 2.9-28.92 5-43.31 7.97-40.17 8.69-80.51 16.62-120.98 23.8-21.71 4.02-43.1 9.18-64.73 13.53l-129.59 25.81c-40 8.2-75.1 13.86-115.61 23.46-.89 5-.59 5.28.89 9.94-5.89.16-11.54 2.23-17.08 4.3-11.79-1.5-5.94-1.39-14.87-6.59 1.18.69-6.6-2.23-5.71-1.9-1.79-.94-1-.24-2.15-2.31 2.67-6.51 6.79-11.73 11.77-16.65"/><path fill="#050d12" d="M1196.95 1655.87c12.3-1.68 24.56-3.6 36.77-5.75-.89 5-.59 5.28.89 9.94-5.89.16-11.54 2.23-17.08 4.3-11.79-1.5-5.94-1.39-14.87-6.59 1.18.69-6.6-2.23-5.71-1.9"/><path fill="#0b5ee5" d="m658.24 799.266 3.144 1.461c4.919 9.912 3.694 14.107 11.707 22.35-6.006 8.209-5.32 17.552 3.662 21.809 24.239 11.489 46.981 20.175 70.515 33.866a467.1 467.1 0 0 1 155.493 144.618c9.963 14.82 17.923 31.3 27.275 45.65a506.6 506.6 0 0 0 68.232-67.82c10.562-12.797 22.782-30.333 33.572-42.08 14.17.156 26.86-.269 41.04-.883-.74 43.643-44.82 68.563-78.319 88.603 1.601 3.37 2.64 6.65 5.689 8.61 18.13 1.14 64.51-46.05 76.7-59.578 61.49 36.768 72.82 73.858 89.5 140.208 17.02 67.67 34.97 135.48 48.54 204-29.24 7.3-26 1.17-54.81-1.58-41.97-4.02-78 12.92-102.71 46.73-9.09-4.32-15.01-6.62-22.73-13.08-2.6-9.98-8.82-40.23-6.13-49.12 8.41-27.74 24.74-56.09 35.76-83.25 12.42-30.57 23.25-60.78 34.17-91.85 1.03-2.84.39-8.51-1.29-11.14-5.71-.76-10.61 6.28-12.34 11.01-5.73 15.6-9.63 32.45-16.23 47.7-24.87 57.51-47 119.22-80.935 172.33-18.3 3.25-37.478 5.51-56.009 8.42-18.962 2.99-40.658 8.22-59.3 10.55-25.031-24.93-49.599-31.12-83.109-18.97-10.269-3.52-21.892-4.15-32.757-5.21-40.172-3.95-80.27-9.22-120.364-13.77-1.883-.21-2.287-.93-3.272-2.28l.554-1.83c-2.361.2-2.709 0-5.104-.29-3.386-2.03-3.512-2.94-5.232-6.44-1.299 2.55-2.683 5.01-4.066 7.52a144.6 144.6 0 0 0-60.28-12.01c-19.096.34-64.617 7.36-77.873 21-1.03 3.63-.738 2.44.575 6.64 1.828 1.76 3.878 3.63 6.454 2.59 27.041-10.84 53.66-19.78 83.493-16.95 20.642 1.97 39.98 10.72 60.457 13.68 47.503 6.87 97.634 9.23 144.729 18.37-43.373 44.68-58.326 95.92-32.863 154.85-37.746 6.66-74.321 8.52-112.902 13.43-89.955 11.45-301.529 36.13-279.56-113.25 11.758-79.95 47.589-167.62 74.841-244.2 32.818-92.22 72.843-181.39 163.93-229.121 21.747-11.593 45.983-20.514 68.688-30.842 23.661 2.61 43.093 9.498 63.523 21.712 47.99 28.692 95.207 64.931 134.893 104.131-.972 33.01-12.102 72.49-19.715 105.1-4.999 21.4-10.229 47.18-16.376 67.79-3.106 11.35-6.054 18.21-11.106 28.89-6.456 19.77 15.538 21.31 19.185 4.25 3.046-14.38 4.039-29.12 7.749-43.41 13.858-53.39 26.749-108.59 34.603-163.17-11.767-15.79-33.323-33.71-48.879-46.56-39.356-32.512-85.918-71.413-135.333-86.135-42.425-12.64-74.53-2.371-111.91 18.299 3.824-36.353 19.202-70.347 38.07-101.332 10.896-17.894 26.403-30.432 44.761-40.016"/><path fill="#050d12" d="M623.152 1338.01c20.762-47.41 37.735-95.95 56.12-144.29a419 419 0 0 0 8.513-23.94c1.487-4.71 6.077-27.27 14.575-21.96 4.269 10.96-8.436 38.55-12.65 50.55-16.861 48.04-33.917 100.61-56.222 146.37-2.361.2-2.709 0-5.104-.29-3.386-2.03-3.512-2.94-5.232-6.44"/><path fill="#2f60c1" d="M809.994 1257.34c-4.003-11.91-1.456-23.81 11.106-28.89-3.106 11.35-6.054 18.21-11.106 28.89"/><path fill="url(#b)" d="M975.749 1055.26c4.606.5 5.443.48 9.683 2.09 3.594 4.98-5.226 42.34-6.669 50.54-7.903 44.89-19.339 89.04-30.716 133.14-3.544 13.74-5.833 27.85-9.877 41.41-1.14 3.77-6.007 8.15-8.935 10.73-9.036-2.42-9.599-6.6-11.726-14.76 4.796-11.72 11.512-22.22 15.453-34.63 19.491-61.34 31.348-125.35 42.787-188.52"/><path fill="#3656bc" d="M1150.77 1321.43c2.2-.12 5.91-.73 7.46.12-10.54 2.77-21.81 1.58-34.7 4.24l.1.92c4.91-.11 16.53-.28 20.72 1.92-5.04 1.16-10.61.92-15.84.99-10.53.5-17.83 10.61-24.72 6.94-1.76-13.8 37.99-14.51 46.98-15.13m-343.235 23.14c10.217-.27 12.769-.39 18.942 8.21-6.373-1.3-11.189 1.13-17.034-1.56-2.414-3.18-1.687-1.99-1.908-6.65m173.674-106.78c4.71.21 6.291-.07 9.056 3.99-.065 3.13-.191 2.97-1.584 5.83-4.023 1.21-6.282 2.55-9.721-.2-.655-3.8.754-5.99 2.249-9.62m-225.767 86.72c10.468-.55 31.045-.91 40.748 1.19l.357 1.08-2.297.25c-9.899-.11-32.204-.12-41.201-1.64z"/><path fill="#0b5ee5" d="M1826.01 1083.41c12.15-.67 33.55-4.27 38.85 9.47-2.09 14.39-7.72 28.81-12.23 42.65-23.77 72.92-48.46 145.94-72.55 218.72l-38.73 119.1c-3.73 11.28-13.38 42.9-18.64 51.67-13.69 3.8-29.64 5.67-43.76 8.12-59.91 10.38-119.47 23.36-179.14 35.01l-255.12 49.06c-12.67 2.76-23.05 4.18-35.77 7.86 3.65-19.17 10.34-39.27 15.49-58.25 10.19-37.55 22.24-75.24 32.45-112.7l65.3-235.83c7.46-25.97 13.35-51.95 21.98-77.68 7.96-23.76 22.08-24.46 44.11-25.82 11.87-.73 23.56-1.05 35.26-1.85l112.32-7.67c96.81-6.14 193.54-13.43 290.18-21.86"/><path fill="#fdfdfc" d="M1561.21 1292.2c53.77-1.63 32.31 83.26-19.97 92.56-6.79.69-13.63-.84-19.49-4.35-19.64-11.98-14.14-43.98-2.82-60.47 11.14-16.23 23.04-23.72 42.28-27.74"/><path fill="#2f60c1" d="m1253.91 1571.34.37.28c1.86 8.76 2.14 9.26-4.35 14.47 11.52 1.46 17.73-4.96 31.11 5.25 3.64 2.77 6.52-1.68 10.4.03-2.36 2.23-7.96 3.65-11.3 4.76-6.34 1.45-39.65 7.35-44.05 4.81-.03-5.87 9.95-12.43 14.04-17.08 5.62-6.42 1.18-6.69 3.78-12.52"/><path fill="#efb57b" d="M1054.14 676.308c4.03 2.513 15.93 12.607 21.74 16.522 38.92 26.199 64.71 37.949 111.99 38.131a638 638 0 0 1-4.82 29.145c-12.15 63.893-37.34 134.195-92.24 173.973-31.36 22.725-73.57 12.701-102.224-9.377-14.203-10.943-21.858-21.481-31.797-36.261l-10.925 3.447a112.7 112.7 0 0 0 34.608 44.869c-6.766 7.324-33.551 49.182-40.783 59.884-6.04 9.369-13.402 19.619-19.773 28.889-2.428-4.7-5.511-9.69-8.251-14.28-24.142-40.425-52.209-78.445-79.08-116.969 11.767-14.086 32.321-51.167 38.529-68.316 26.374 7.189 43.966-8.247 62.511-23.885-14.907-10.456-28.593-19.347-34.439-37.785-4.605-15.425-4.059-31.927 3.331-46.356 8.42-16.44 29.398-28.093 46.838-18.023 17.064 9.853 20.893 32.229 25.497 49.976 40.598-6.036 65.758-36.532 79.288-73.584m-66.973 705.112c65.033-4.61 121.613 44.27 142.373 103.9 10.14 29.11-15.29 30.87-19.65 20.69-15.3-35.76-30.39-63.29-65.45-84.23-6-3.58-23.46-13.79-30.64-12.06-2.08 2.37-2.05 2.15-2.42 5.25 3.52 8.46 23.09 13.68 32.17 20.63 22.15 16.42 36.68 36.23 48.36 60.92 12.34 26.06-2.55 37.2-25.94 22.68-15.66-31.63-15.36-39.58-45.66-63.08-3.38-2.36-6.85-4.58-10.4-6.67-6.4-3.79-18.702-11.73-26.076-9.85-2.486 2.65-1.707 1.93-2.374 6.25 1.234 3.67 17.223 11.5 22.11 13.25 16.21 5.83 58.89 54.79 47.92 72.43-5.63 4.29-13.89 4.54-20.85 5.14-13.44-9.02-18.96-22.9-30.11-34.45-7.117-8.35-38.86-21.87-49.847-19.99-28.083 4.79-52.661 33.74-84.813 31.88-17.985-1.04-32.745-2.24-46.233-15.84-7.6-26.15 7.947-82.44 34.457-91.24 40.087-13.29 90.874-21.44 133.073-25.61"/><path fill="#3656bc" d="M762.357 1541.34c22.821-.92 49.24 4.98 72.01 8.6 59.323 9.41 117.868 22.58 177.393 30.86 16.64 2.32 34.22 7.68 51.21 10.4 45.15 7.24 90.32 14.19 135.48 21.25-2.81 13.11-9.21 24.23-15.24 36.2-1.97 3.99-1.08 3.82-4.24 5.4-12.1-4.23-30.57-7.33-43.48-9.9l-75.09-14.6-183.461-36.95c-41.4-8.23-80.487-14.18-121.421-24.85-1.094-8.37-3.17-15.87-.264-23.49 3.169-2.9 2.225-2 7.103-2.92"/><path fill="#efb57b" d="M1216.57 1352.36c17.14-1.86 34.02 1.78 50.27 6.9-1.24 10.69-3.83 20.12-6.6 30.43-5.8-4.98-19.48-15.77-27.07-12.8-.68 1.41-1.56 5.09-.65 5.97 7.35 7.09 15.94 12.14 23.09 19.62-5.81 21.95-11.22 42.87-17.9 64.6-.64-3.69-1.3-7.47-1.84-11.15-2.68-18.2-19.68-53.87-42.75-48.46-4.76 7.21 5.94 11.5 11.29 14.82 13.71 11.69 20.33 30.59 20.64 48.42 1.51 10.47-8.96 26.35-19.37 15.66-8.07-8.28-13.18-23.18-21.4-33.06l-.91-1.07c-19.17-2.06-44.15.65-46.19-25.21-3.8-48.13 40.39-69.24 79.39-74.67"/><path fill="#3656bc" d="M813.634 1375.28c16.44-1.31 30.854 4.73 43.232 15.14-8.049 4.05-16.738 8.78-22.758 15.53-27.143 30.44-38.572 76.93-15.586 111.86-9.597 3.34-16.414 5.37-26.275 7.82-12.217 2.73-20.664 3.89-33.16 4.58-30.912-36.47-12.354-108.9 19.476-138.92 10.569-9.96 21.384-13.55 35.071-16.01"/><path fill="#2f60c1" d="M795.551 1395.1q.586 2.595 1.225 5.16c11.013 6.87 12.461 13.93 2.818 23.07-4.122 1.58-4.998 1.79-8.161-.93-2.915-7.94 1.48-19.44 4.118-27.3m-25.348 96.44c3.853 2.37 8.276 6.25 8.956 10.88-1.055 3.11-1.319 2.91-3.957 5.02-3.631 1.04-5.533 2.12-8.642.05-1.299-4.07 2.102-11.53 3.643-15.95"/><path fill="#3656bc" d="M658.24 799.266c42.584-24.24 127.098-14.249 173.712-1.465a493 493 0 0 1 27.506 8.272l1.744 15.127c-15.877-4.722-32.663-9.712-48.944-12.227-35.535-5.488-102.582-5.606-134.049 11.107a82 82 0 0 0-5.118 2.997c-8.013-8.243-6.788-12.438-11.707-22.35zm430.14 742.854c32.2-7.03 61.37-12.89 94.34-16.52 10.91-1.2 27.66-4.53 38.26-4.16l1.77 1.14c.36 4.4-1.68 6.51-4.38 10.14-57.6 7.63-115.1 19.34-172.68 27.46-8.44 1.19-17.32 3.48-25.68 5.23-21.715 6.46-40.209-.13-61.748-3.54-10.545-1.68-22.025-2.17-32.954-3.74 26.503-3.91 56.089-9.01 82.192-12.5 19.25-2.58 24.76 8.97 52.34-.09 2.15-4.25.83-6.61 4.61-10.13 3.29-.61 3.09-.25 6.12 1.73 6.37 4.15 10.5 4.62 17.81 4.98"/><path fill="#1f2952" d="M1059.84 1545.54c2.15-4.25.83-6.61 4.61-10.13 3.29-.61 3.09-.25 6.12 1.73 6.37 4.15 10.5 4.62 17.81 4.98-9.33 1.41-19.14 2.42-28.54 3.42"/><path fill="#2f60c1" d="M1070.43 1388.99a56 56 0 0 1 9.07-11.4c27.81-27.19 59.26-25.82 94.44-25.52-29.05 13.39-49.69 36.63-49.6 69.77 2.46 21.64 7.47 23.71 13.97 41.82-5.46-6.87-14.02-18.15-18.84-25.6-3.29-3.18-8.69-11.04-13.64-15.86-11.65-11.35-23.45-22.18-35.4-33.21"/><path fill="#5d6e95" d="M1124.34 1421.84c2.46 21.64 7.47 23.71 13.97 41.82-5.46-6.87-14.02-18.15-18.84-25.6 7.48 1.77-.06 2.19 5.82 4.17 1.4-8.22-6.13-10.36-.95-20.39"/><path fill="#3656bc" d="M1038.61 1576.39c32.72-3.07 80.81 11.94 114.44 15.69 18.04 2.02 29.91.8 47.95.56 2.05 2.15 1.36 2.13 1.58 5.99-8.81 0-18.05.68-26.81.14-35.34-2.25-69.8-10.94-104.88-15.28-8.73-1.08-26.67-1.14-32.28-7.1"/><path fill="#fdfdfc" d="M1015.62 1344.69c1.63 1.84 4.27 20.67 4.97 24.67-3.34 1.3-4.47.46-8.61-.07-2.86-.64-3.5-.71-6.25-1.91-1.24-6.06 7-15.48 9.89-22.69"/><path fill="#050d12" d="M1273.95 181.136c21.18-1.082 45.74.083 61.79 15.976a40.74 40.74 0 0 1 11.08 20.217c2.18 9.964.72 36.064.93 47.826.19 10.295 1.09 23.106.99 32.906 11.18 2.493 25.74 9.748 29.41 20.92 10.33 31.437-4.56 41.798-28.81 51.735 1.09 15.856.72 56.708-3.09 72.349-3.7 15.146-13.15 21.241-25.68 27.992-18.74 6.424-32.27 5.316-51.26 2.426-6.94-8.483-9.53-11.269-11.53-22.444-3.66-20.553 4.58-35.145 26-38.052-.03-5.591.21-11.365.33-16.995.48-23.477-2.99-44.69 15.68-62.205-4.96-5.512-9.45-12.748-13.57-18.996-1.87-25.004-2.91-47.344-1.74-72.446a840 840 0 0 1-11.86-5.316c-21.21-9.52-16.81-24.278-14.09-44.257 5.65-6.291 7.67-8.409 15.42-11.636"/><path fill="url(#c)" d="M1276.29 193.078c20.38-.857 56.17 5.281 58.99 29.386 3.14 26.74.04 55.751 1.73 83.104 23.8 16.301 31.46 5.653 29.88 40.985-7.29 6.239-19.97 12.138-28.77 16.852-4.75 25.383-.07 53.143-3.55 79.579-6.54 9.418-10.25 12.301-20.53 16.572-6.97 2.299-13.95 2.88-20.94 4.359-26.77 5.666-23.7-12.281-22.87-31.385 8.11-3.848 17.49-6.893 26.02-9.903 4.44-21.005-1.91-49.984 3.49-67.229 11.19-15.193 17.63-17.989 3.92-37.3-13.12-18.459-2.79-55.585-6.48-77.532-1.29-7.714-20.41-13.659-27.15-17.53-2.86-12.408-3.1-20.169 6.26-29.958"/><path fill="#050d12" d="M1484.39 680.236c7.79-.413 15.06-1.38 22.49 1.287 23.64 9.346 26.21 31.547 25.37 53.593-1.02 26.434-15.93 47.984-37.76 62.042-6.64 4.273-14.47 6.342-21.71 9.489-2.32-3.647-4.5-6.081-7.26-9.335 9.96-10.154 30.72-23.626 31.59-39.835l-1.12-.939c-51.77 1.362-55.07-68.872-11.6-76.302m10.45-121.629a40.45 40.45 0 0 1 35.18 20.979 40.45 40.45 0 0 1-37.51 59.864c-21.97-1.119-39.01-19.58-38.38-41.561.64-21.981 18.72-39.429 40.71-39.282"/></svg>